<svg width="59" height="59" viewBox="0 0 59 59" fill="none" xmlns="http://www.w3.org/2000/svg">
<path d="M34.6866 33.6112L38.5765 37.5564L37.2859 38.8654L33.396 34.9201C32.681 35.4978 31.8994 35.9402 31.0512 36.2475C30.1544 36.567 29.2334 36.7268 28.2882 36.7268C26.8098 36.7268 25.4344 36.352 24.162 35.6022C22.926 34.8648 21.9505 33.8693 21.2355 32.6156C20.4842 31.3251 20.1085 29.9301 20.1085 28.4307C20.1085 26.9312 20.4842 25.5363 21.2355 24.2457C21.9505 22.9921 22.926 22.0027 24.162 21.2776C25.4344 20.5156 26.8098 20.1346 28.2882 20.1346C29.7666 20.1346 31.142 20.5156 32.4144 21.2776C33.6505 22.0027 34.632 22.9921 35.3591 24.2457C36.0983 25.5363 36.4679 26.9312 36.4679 28.4307C36.4679 29.3894 36.3104 30.3234 35.9953 31.2329C35.6924 32.0933 35.2561 32.886 34.6866 33.6112ZM32.8507 32.929C33.4202 32.3391 33.8625 31.6631 34.1776 30.9011C34.4927 30.1145 34.6502 29.291 34.6502 28.4307C34.6502 27.2631 34.3594 26.1754 33.7777 25.1675C33.2203 24.1966 32.4629 23.4284 31.5056 22.8631C30.5119 22.2731 29.4394 21.9781 28.2882 21.9781C27.137 21.9781 26.0646 22.2731 25.0709 22.8631C24.1136 23.4284 23.3562 24.1966 22.7987 25.1675C22.2171 26.1754 21.9262 27.2631 21.9262 28.4307C21.9262 29.5983 22.2171 30.686 22.7987 31.6938C23.3562 32.6648 24.1136 33.433 25.0709 33.9983C26.0646 34.5883 27.137 34.8832 28.2882 34.8832C29.1365 34.8832 29.9484 34.7235 30.724 34.4039C31.4753 34.0844 32.1418 33.6357 32.7234 33.0581L32.8507 32.929Z" fill="#1D1D1F" fill-opacity="0.3"/>
</svg>
