<svg width="18" height="18" viewBox="0 0 18 18" fill="none" xmlns="http://www.w3.org/2000/svg">
<path d="M7.5602 1.63491H10.4402C11.4866 1.63491 12.4562 1.90256 13.349 2.43787C14.213 2.95371 14.8994 3.65447 15.4082 4.54016C15.9362 5.44532 16.2002 6.42591 16.2002 7.48192C16.2002 8.53794 15.9362 9.51852 15.4082 10.4237C14.8994 11.3094 14.213 12.0101 13.349 12.526C12.4562 13.0515 11.4866 13.3143 10.4402 13.3143V15.8692C9.2498 15.3923 8.2946 14.9738 7.5746 14.6137C6.4706 14.0686 5.5346 13.4993 4.7666 12.9056C3.845 12.1951 3.1394 11.4213 2.6498 10.5843C2.0834 9.64018 1.8002 8.60363 1.8002 7.47462C1.8002 6.42347 2.0642 5.44532 2.5922 4.54016C3.101 3.65447 3.7874 2.95371 4.6514 2.43787C5.5442 1.91229 6.5138 1.64951 7.5602 1.64951V1.63491Z" fill="black"/>
</svg>
