<svg width="54" height="74" viewBox="0 0 54 74" fill="none" xmlns="http://www.w3.org/2000/svg">
<path d="M0 14.7295C0 6.59462 6.59462 0 14.7295 0H39.2705C47.4054 0 54 6.59462 54 14.7295V39.2705C54 47.4054 47.4054 54 39.2705 54H14.7295C6.59462 54 0 47.4054 0 39.2705V14.7295Z" fill="#1E3A5F" fill-opacity="0.1"/>
<path d="M20.4664 21.5151L17.5264 18.5333L18.7968 17.2265L21.7367 20.2082H35.5653C35.8194 20.2082 36.0341 20.2972 36.2096 20.4751C36.385 20.6531 36.4727 20.8709 36.4727 21.1285C36.4727 21.2144 36.4606 21.3003 36.4364 21.3862L34.2587 28.7487C34.2103 28.945 34.1044 29.1045 33.9411 29.2272C33.7777 29.3499 33.5932 29.4113 33.3876 29.4113H22.2811V31.2519H32.2624V33.0925H21.3737C21.1197 33.0925 20.9049 33.0036 20.7295 32.8256C20.5541 32.6477 20.4664 32.4299 20.4664 32.1722V21.5151ZM22.2811 22.0489V27.5707H32.7161L34.3494 22.0489H22.2811ZM21.8274 36.7737C21.4524 36.7737 21.1318 36.6388 20.8656 36.3688C20.5994 36.0989 20.4664 35.7737 20.4664 35.3933C20.4664 35.0129 20.5994 34.6877 20.8656 34.4178C21.1318 34.1478 21.4524 34.0128 21.8274 34.0128C22.2025 34.0128 22.5231 34.1478 22.7893 34.4178C23.0554 34.6877 23.1885 35.0129 23.1885 35.3933C23.1885 35.7737 23.0554 36.0989 22.7893 36.3688C22.5231 36.6388 22.2025 36.7737 21.8274 36.7737ZM32.7161 36.7737C32.3411 36.7737 32.0204 36.6388 31.7543 36.3688C31.4881 36.0989 31.355 35.7737 31.355 35.3933C31.355 35.0129 31.4881 34.6877 31.7543 34.4178C32.0204 34.1478 32.3411 34.0128 32.7161 34.0128C33.0912 34.0128 33.4118 34.1478 33.6779 34.4178C33.9441 34.6877 34.0772 35.0129 34.0772 35.3933C34.0772 35.7737 33.9441 36.0989 33.6779 36.3688C33.4118 36.6388 33.0912 36.7737 32.7161 36.7737Z" fill="#1E3A5F"/>
</svg>
