<svg width="54" height="74" viewBox="0 0 54 74" fill="none" xmlns="http://www.w3.org/2000/svg">
<path d="M0 14.7295C0 6.59462 6.59462 0 14.7295 0H39.2705C47.4054 0 54 6.59462 54 14.7295V39.2705C54 47.4054 47.4054 54 39.2705 54H14.7295C6.59462 54 0 47.4054 0 39.2705V14.7295Z" fill="#1E3A5F" fill-opacity="0.1"/>
<path d="M33.3519 36.2029H20.6485C20.1524 36.2029 19.6957 36.0802 19.2783 35.8348C18.8609 35.5894 18.5312 35.255 18.2893 34.8316C18.0473 34.4083 17.9263 33.9451 17.9263 33.442V18.7171C17.9263 18.4594 18.014 18.2416 18.1895 18.0637C18.3649 17.8857 18.5796 17.7968 18.8337 17.7968H31.5371C31.7912 17.7968 32.006 17.8857 32.1814 18.0637C32.3568 18.2416 32.4445 18.4594 32.4445 18.7171V29.7608H36.0741V33.442C36.0741 33.9451 35.9531 34.4083 35.7111 34.8316C35.4692 35.255 35.1395 35.5894 34.7221 35.8348C34.3047 36.0802 33.848 36.2029 33.3519 36.2029ZM32.4445 31.6014V33.442C32.4445 33.6997 32.5322 33.9175 32.7077 34.0954C32.8831 34.2733 33.0978 34.3623 33.3519 34.3623C33.606 34.3623 33.8207 34.2733 33.9962 34.0954C34.1716 33.9175 34.2593 33.6997 34.2593 33.442V31.6014H32.4445ZM30.6298 34.3623V19.6374H19.7411V33.442C19.7411 33.6997 19.8288 33.9175 20.0042 34.0954C20.1797 34.2733 20.3944 34.3623 20.6485 34.3623H30.6298ZM21.5559 22.3983H28.815V24.2389H21.5559V22.3983ZM21.5559 26.0795H28.815V27.9201H21.5559V26.0795ZM21.5559 29.7608H26.0928V31.6014H21.5559V29.7608Z" fill="#1E3A5F"/>
</svg>
