<svg width="18" height="18" viewBox="0 0 18 18" fill="none" xmlns="http://www.w3.org/2000/svg">
<path d="M16.1999 2.18989C16.4015 2.18989 16.5719 2.26046 16.7111 2.40158C16.8503 2.54271 16.9199 2.71547 16.9199 2.91986V14.5993C16.9199 14.8037 16.8503 14.9764 16.7111 15.1176C16.5719 15.2587 16.4015 15.3293 16.1999 15.3293H3.23992C3.03832 15.3293 2.86792 15.2587 2.72872 15.1176C2.58952 14.9764 2.51992 14.8037 2.51992 14.5993V13.8693H15.4799V5.32874L9.71992 10.5845L2.51992 4.0148V2.91986C2.51992 2.71547 2.58952 2.54271 2.72872 2.40158C2.86792 2.26046 3.03832 2.18989 3.23992 2.18989H16.1999ZM6.83992 10.9495V12.4094H1.07992V10.9495H6.83992ZM4.67992 7.29964V8.75957H1.07992V7.29964H4.67992ZM15.1631 3.64982H4.27672L9.71992 8.61358L15.1631 3.64982Z" fill="#0071E3"/>
</svg>
