<svg width="54" height="74" viewBox="0 0 54 74" fill="none" xmlns="http://www.w3.org/2000/svg">
<path d="M0 14.7295C0 6.59462 6.59462 0 14.7295 0H39.2705C47.4054 0 54 6.59462 54 14.7295V39.2705C54 47.4054 47.4054 54 39.2705 54H14.7295C6.59462 54 0 47.4054 0 39.2705V14.7295Z" fill="#1E3A5F" fill-opacity="0.1"/>
<path d="M25.9474 17.6497C27.4234 17.6497 28.7966 18.0301 30.0669 18.7908C31.301 19.5148 32.281 20.5026 33.0069 21.7542C33.7449 23.0427 34.1139 24.4354 34.1139 25.9324C34.1139 27.4294 33.7449 28.8222 33.0069 30.1106C32.281 31.3622 31.301 32.3561 30.0669 33.0924C28.7966 33.8409 27.4234 34.2152 25.9474 34.2152C24.4714 34.2152 23.0982 33.8409 21.8278 33.0924C20.5938 32.3561 19.6199 31.3622 18.9061 30.1106C18.1559 28.8222 17.7809 27.4294 17.7809 25.9324C17.7809 24.4354 18.1559 23.0427 18.9061 21.7542C19.6199 20.5026 20.5938 19.5148 21.8278 18.7908C23.0982 18.0301 24.4714 17.6497 25.9474 17.6497ZM25.9474 32.3746C27.0968 32.3746 28.1675 32.0801 29.1595 31.4911C30.1153 30.9266 30.8715 30.1597 31.428 29.1903C32.0087 28.1841 32.2991 27.0981 32.2991 25.9324C32.2991 24.7667 32.0087 23.6807 31.428 22.6745C30.8715 21.7051 30.1153 20.9382 29.1595 20.3738C28.1675 19.7848 27.0968 19.4903 25.9474 19.4903C24.798 19.4903 23.7273 19.7848 22.7352 20.3738C21.7795 20.9382 21.0233 21.7051 20.4668 22.6745C19.886 23.6807 19.5957 24.7667 19.5957 25.9324C19.5957 27.0981 19.886 28.1841 20.4668 29.1903C21.0233 30.1597 21.7795 30.9266 22.7352 31.4911C23.7273 32.0801 24.798 32.3746 25.9474 32.3746ZM33.642 32.4482L36.219 35.0434L34.9305 36.3503L32.3717 33.7366L33.642 32.4482Z" fill="#1E3A5F"/>
</svg>
