<svg width="54" height="74" viewBox="0 0 54 74" fill="none" xmlns="http://www.w3.org/2000/svg">
<path d="M0 14.7295C0 6.59462 6.59462 0 14.7295 0H39.2705C47.4054 0 54 6.59462 54 14.7295V39.2705C54 47.4054 47.4054 54 39.2705 54H14.7295C6.59462 54 0 47.4054 0 39.2705V14.7295Z" fill="#1E3A5F" fill-opacity="0.1"/>
<path d="M18.8337 18.7172H35.1667C35.4208 18.7172 35.6355 18.8062 35.8109 18.9841C35.9864 19.1621 36.0741 19.3799 36.0741 19.6376V34.3624C36.0741 34.6201 35.9864 34.8379 35.8109 35.0159C35.6355 35.1938 35.4208 35.2828 35.1667 35.2828H18.8337C18.5796 35.2828 18.3649 35.1938 18.1895 35.0159C18.014 34.8379 17.9263 34.6201 17.9263 34.3624V19.6376C17.9263 19.3799 18.014 19.1621 18.1895 18.9841C18.3649 18.8062 18.5796 18.7172 18.8337 18.7172ZM19.7411 20.5579V33.4421H34.2593V20.5579H19.7411ZM22.4633 27.9203H24.278V31.6015H22.4633V27.9203ZM26.0928 22.3985H27.9076V31.6015H26.0928V22.3985ZM29.7224 25.1594H31.5371V31.6015H29.7224V25.1594Z" fill="#1E3A5F"/>
</svg>
