<svg width="54" height="74" viewBox="0 0 54 74" fill="none" xmlns="http://www.w3.org/2000/svg">
<path d="M0 14.7295C0 6.59462 6.59462 0 14.7295 0H39.2705C47.4054 0 54 6.59462 54 14.7295V39.2705C54 47.4054 47.4054 54 39.2705 54H14.7295C6.59462 54 0 47.4054 0 39.2705V14.7295Z" fill="#1E3A5F" fill-opacity="0.1"/>
<path d="M25.1854 18.0177H28.815C30.1337 18.0177 31.3557 18.3551 32.4808 19.03C33.5697 19.6804 34.4347 20.5639 35.076 21.6805C35.7414 22.8217 36.0741 24.058 36.0741 25.3893C36.0741 26.7207 35.7414 27.957 35.076 29.0982C34.4347 30.2148 33.5697 31.0983 32.4808 31.7486C31.3557 32.4113 30.1337 32.7426 28.815 32.7426V35.9636C27.3148 35.3624 26.111 34.8347 25.2036 34.3807C23.8122 33.6936 22.6326 32.9757 21.6648 32.2272C20.5033 31.3314 19.6141 30.3559 18.997 29.3006C18.2832 28.1104 17.9263 26.8035 17.9263 25.3801C17.9263 24.0549 18.259 22.8217 18.9244 21.6805C19.5657 20.5639 20.4307 19.6804 21.5196 19.03C22.6447 18.3674 23.8667 18.0361 25.1854 18.0361V18.0177ZM27.0002 30.902H28.815C29.795 30.9142 30.7084 30.6688 31.5553 30.1657C32.378 29.6749 33.0313 29.0123 33.5152 28.1779C34.0113 27.3189 34.2593 26.3894 34.2593 25.3893C34.2593 24.3893 34.0113 23.4598 33.5152 22.6008C33.0313 21.7664 32.378 21.1038 31.5553 20.6129C30.7084 20.1098 29.795 19.8583 28.815 19.8583H25.1854C24.2054 19.8583 23.292 20.1098 22.4451 20.6129C21.6224 21.1038 20.9691 21.7664 20.4851 22.6008C19.9891 23.4598 19.7411 24.3862 19.7411 25.3801C19.7411 26.4845 19.9952 27.4784 20.5033 28.3619C21.0114 29.2454 21.8039 30.086 22.8807 30.8836C23.909 31.6321 25.2822 32.399 27.0002 33.1843V30.902Z" fill="#1E3A5F"/>
</svg>
