<svg width="54" height="74" viewBox="0 0 54 74" fill="none" xmlns="http://www.w3.org/2000/svg">
<path d="M0 14.7295C0 6.59462 6.59462 0 14.7295 0H39.2705C47.4054 0 54 6.59462 54 14.7295V39.2705C54 47.4054 47.4054 54 39.2705 54H14.7295C6.59462 54 0 47.4054 0 39.2705V14.7295Z" fill="#1E3A5F" fill-opacity="0.1"/>
<path d="M26.9997 16.8768L34.4584 18.5518C34.6641 18.6008 34.8335 18.7113 34.9666 18.8831C35.0996 19.0549 35.1662 19.2451 35.1662 19.4537V28.6383C35.1662 29.5709 34.9514 30.4421 34.5219 31.252C34.0924 32.0618 33.4966 32.7245 32.7344 33.2398L26.9997 37.1235L21.265 33.2398C20.5028 32.7245 19.9069 32.0618 19.4774 31.252C19.0479 30.4421 18.8332 29.5709 18.8332 28.6383V19.4537C18.8332 19.2451 18.8997 19.0549 19.0328 18.8831C19.1659 18.7113 19.3353 18.6008 19.541 18.5518L26.9997 16.8768ZM26.9997 18.7542L20.648 20.1899V28.6383C20.648 29.2641 20.7901 29.847 21.0744 30.3869C21.3588 30.9268 21.755 31.3685 22.2631 31.7121L26.9997 34.9148L31.7363 31.7121C32.2444 31.3685 32.6406 30.9268 32.9249 30.3869C33.2092 29.847 33.3514 29.2641 33.3514 28.6383V20.1899L26.9997 18.7542ZM31.0466 23.5214L32.317 24.8282L26.546 30.6814L22.6987 26.7793L23.9872 25.4725L26.546 28.0861L31.0466 23.5214Z" fill="#1E3A5F"/>
</svg>
