<svg width="16" height="15" viewBox="0 0 16 15" fill="none" xmlns="http://www.w3.org/2000/svg">
<path d="M12.0129 13.75H3.38854C3.05178 13.75 2.74171 13.6667 2.45834 13.5C2.17497 13.3333 1.95115 13.1063 1.78687 12.8188C1.6226 12.5313 1.54046 12.2167 1.54046 11.875V1.875C1.54046 1.7 1.60001 1.55208 1.71911 1.43125C1.83821 1.31042 1.984 1.25 2.15649 1.25H10.7808C10.9533 1.25 11.0991 1.31042 11.2182 1.43125C11.3373 1.55208 11.3969 1.7 11.3969 1.875V9.375H13.861V11.875C13.861 12.2167 13.7788 12.5313 13.6146 12.8188C13.4503 13.1063 13.2265 13.3333 12.9431 13.5C12.6597 13.6667 12.3497 13.75 12.0129 13.75ZM11.3969 10.625V11.875C11.3969 12.05 11.4564 12.1979 11.5755 12.3188C11.6946 12.4396 11.8404 12.5 12.0129 12.5C12.1854 12.5 12.3312 12.4396 12.4503 12.3188C12.5694 12.1979 12.6289 12.05 12.6289 11.875V10.625H11.3969ZM10.1648 12.5V2.5H2.77252V11.875C2.77252 12.05 2.83207 12.1979 2.95116 12.3188C3.07026 12.4396 3.21605 12.5 3.38854 12.5H10.1648ZM4.00457 4.375H8.93277V5.625H4.00457V4.375ZM4.00457 6.875H8.93277V8.125H4.00457V6.875ZM4.00457 9.375H7.0847V10.625H4.00457V9.375Z" fill="#2563EB"/>
</svg>
