<svg width="16" height="15" viewBox="0 0 16 15" fill="none" xmlns="http://www.w3.org/2000/svg">
<path d="M8.31679 10.5875V11.875H11.3969V13.125H4.00461V11.875H7.08474V10.5875C6.2798 10.4875 5.54878 10.2042 4.89168 9.7375C4.23459 9.27083 3.72124 8.68333 3.35162 7.975C2.96558 7.24167 2.77256 6.45833 2.77256 5.625V1.875H12.629V5.625C12.629 6.45833 12.4359 7.24167 12.0499 7.975C11.6803 8.68333 11.1669 9.27083 10.5098 9.7375C9.85274 10.2042 9.12173 10.4875 8.31679 10.5875ZM4.00461 3.125V5.625C4.00461 6.3 4.17299 6.92917 4.50975 7.5125C4.8383 8.07917 5.28183 8.52917 5.84036 8.8625C6.41532 9.20417 7.03545 9.375 7.70076 9.375C8.36607 9.375 8.9862 9.20417 9.56116 8.8625C10.1197 8.52917 10.5632 8.07917 10.8918 7.5125C11.2285 6.92917 11.3969 6.3 11.3969 5.625V3.125H4.00461ZM0.924479 3.125H2.15653V5.625H0.924479V3.125ZM13.245 3.125H14.477V5.625H13.245V3.125Z" fill="#DC2626"/>
</svg>
