<svg width="16" height="15" viewBox="0 0 16 15" fill="none" xmlns="http://www.w3.org/2000/svg">
<path d="M8 1.875C4.41015 1.875 1.5 4.07208 1.5 6.78125C1.5 8.18125 2.27656 9.43906 3.51562 10.3219C3.43906 11.0461 3.16562 11.7656 2.71875 12.4297C2.625 12.5688 2.71641 12.7578 2.88281 12.7344C3.96328 12.5828 4.84531 12.2086 5.49922 11.7508C6.27656 11.9852 7.11797 12.0156 8 12.0156C11.5899 12.0156 14.5 9.81854 14.5 6.78125C14.5 4.07208 11.5899 1.875 8 1.875ZM5.1875 7.65625C4.74567 7.65625 4.39062 7.30121 4.39062 6.85938C4.39062 6.41754 4.74567 6.0625 5.1875 6.0625C5.62933 6.0625 5.98438 6.41754 5.98438 6.85938C5.98438 7.30121 5.62933 7.65625 5.1875 7.65625ZM8 7.65625C7.55817 7.65625 7.20312 7.30121 7.20312 6.85938C7.20312 6.41754 7.55817 6.0625 8 6.0625C8.44183 6.0625 8.79688 6.41754 8.79688 6.85938C8.79688 7.30121 8.44183 7.65625 8 7.65625ZM10.8125 7.65625C10.3707 7.65625 10.0156 7.30121 10.0156 6.85938C10.0156 6.41754 10.3707 6.0625 10.8125 6.0625C11.2543 6.0625 11.6094 6.41754 11.6094 6.85938C11.6094 7.30121 11.2543 7.65625 10.8125 7.65625Z" fill="#4F46E5"/>
</svg>
