<svg width="16" height="15" viewBox="0 0 16 15" fill="none" xmlns="http://www.w3.org/2000/svg">
<path d="M3.97945 9.21274L1.23197 11.4002V1.71274C1.23197 1.54607 1.29152 1.40232 1.41062 1.28149C1.52972 1.16066 1.67551 1.09607 1.848 1.08774H11.0884C11.2609 1.08774 11.4067 1.15024 11.5258 1.27524C11.6449 1.40024 11.7044 1.54607 11.7044 1.71274V9.21274H3.97945ZM3.54823 7.96274H10.4724V2.33774H2.46402V8.83774L3.54823 7.96274ZM5.54415 10.4627H11.8523L12.9365 11.3377V4.83774H13.5525C13.725 4.84607 13.8708 4.91066 13.9899 5.03149C14.109 5.15232 14.1685 5.29607 14.1685 5.46274V13.9002L11.421 11.7127H6.16018C5.98769 11.7127 5.8419 11.6523 5.7228 11.5315C5.6037 11.4107 5.54415 11.2627 5.54415 11.0877V10.4627Z" fill="#D97706"/>
</svg>
