<svg width="16" height="15" viewBox="0 0 16 15" fill="none" xmlns="http://www.w3.org/2000/svg">
<path d="M7.70072 13.75C6.86293 13.75 6.06209 13.5875 5.29822 13.2625C4.5672 12.9458 3.91627 12.4979 3.34542 11.9188C2.77457 11.3396 2.33308 10.6792 2.02096 9.9375C1.70063 9.1625 1.54046 8.35 1.54046 7.5C1.54046 6.65 1.70063 5.8375 2.02096 5.0625C2.33308 4.32083 2.77457 3.66042 3.34542 3.08125C3.91627 2.50208 4.5672 2.05417 5.29822 1.7375C6.06209 1.4125 6.86293 1.25 7.70072 1.25C8.53852 1.25 9.33935 1.4125 10.1032 1.7375C10.8342 2.05417 11.4852 2.50208 12.056 3.08125C12.6269 3.66042 13.0684 4.32083 13.3805 5.0625C13.7008 5.8375 13.861 6.65 13.861 7.5C13.861 8.35 13.7008 9.1625 13.3805 9.9375C13.0684 10.6792 12.6269 11.3396 12.056 11.9188C11.4852 12.4979 10.8342 12.9458 10.1032 13.2625C9.33935 13.5875 8.53852 13.75 7.70072 13.75ZM7.70072 12.5C8.59601 12.5 9.42559 12.2708 10.1895 11.8125C10.9287 11.3708 11.516 10.775 11.9513 10.025C12.403 9.25 12.6289 8.40833 12.6289 7.5C12.6289 6.59167 12.403 5.75 11.9513 4.975C11.516 4.225 10.9287 3.62917 10.1895 3.1875C9.42559 2.72917 8.59601 2.5 7.70072 2.5C6.80543 2.5 5.97585 2.72917 5.21198 3.1875C4.47275 3.62917 3.88547 4.225 3.45014 4.975C2.99839 5.75 2.77252 6.59167 2.77252 7.5C2.77252 8.40833 2.99839 9.25 3.45014 10.025C3.88547 10.775 4.47275 11.3708 5.21198 11.8125C5.97585 12.2708 6.80543 12.5 7.70072 12.5ZM7.0847 4.375H8.31675V5.625H7.0847V4.375ZM7.0847 6.875H8.31675V10.625H7.0847V6.875Z" fill="#4B5563"/>
</svg>
