<svg width="16" height="15" viewBox="0 0 16 15" fill="none" xmlns="http://www.w3.org/2000/svg">
<path d="M6.46867 1.40024H8.93277C9.82806 1.40024 10.6576 1.62941 11.4215 2.08774C12.1607 2.52941 12.748 3.12941 13.1833 3.88774C13.6351 4.66274 13.861 5.50232 13.861 6.40649C13.861 7.31066 13.6351 8.15024 13.1833 8.92524C12.748 9.68357 12.1607 10.2836 11.4215 10.7252C10.6576 11.1752 9.82806 11.4002 8.93277 11.4002V13.5877C7.91428 13.1794 7.09702 12.8211 6.48099 12.5127C5.53642 12.0461 4.73558 11.5586 4.07849 11.0502C3.28998 10.4419 2.68627 9.77941 2.26737 9.06274C1.78277 8.25441 1.54046 7.36691 1.54046 6.40024C1.54046 5.50024 1.76634 4.66274 2.21809 3.88774C2.65342 3.12941 3.2407 2.52941 3.97993 2.08774C4.7438 1.63774 5.57338 1.41274 6.46867 1.41274V1.40024ZM7.70072 10.1502H8.93277C9.59808 10.1586 10.2182 9.99191 10.7932 9.65024C11.3517 9.31691 11.7952 8.86691 12.1238 8.30024C12.4605 7.71691 12.6289 7.08566 12.6289 6.40649C12.6289 5.72732 12.4605 5.09607 12.1238 4.51274C11.7952 3.94607 11.3517 3.49607 10.7932 3.16274C10.2182 2.82107 9.59808 2.65024 8.93277 2.65024H6.46867C5.80336 2.65024 5.18323 2.82107 4.60827 3.16274C4.04974 3.49607 3.6062 3.94607 3.27766 4.51274C2.9409 5.09607 2.77252 5.72524 2.77252 6.40024C2.77252 7.15024 2.945 7.82524 3.28998 8.42524C3.63495 9.02524 4.17295 9.59607 4.90396 10.1377C5.60213 10.6461 6.53438 11.1669 7.70072 11.7002V10.1502Z" fill="#059669"/>
</svg>
