<svg width="12" height="11" viewBox="0 0 12 11" fill="none" xmlns="http://www.w3.org/2000/svg">
<path d="M1.73483 7.79164C1.54203 7.45553 1.39442 7.10108 1.29199 6.72831C1.51492 6.6122 1.69416 6.44414 1.82972 6.22414C1.96529 6.00414 2.03307 5.76275 2.03307 5.49997C2.03307 5.2372 1.96529 4.99581 1.82972 4.77581C1.69416 4.55581 1.51492 4.38775 1.29199 4.27164C1.50287 3.50775 1.87943 2.8447 2.42168 2.28247C2.63255 2.42303 2.86602 2.49789 3.12209 2.50706C3.37815 2.51622 3.61764 2.45511 3.84057 2.32372C4.06349 2.19233 4.2352 2.01206 4.3557 1.78289C4.4762 1.55372 4.53043 1.31386 4.51838 1.06331C5.2715 0.86164 6.02463 0.86164 6.77775 1.06331C6.7657 1.31386 6.81993 1.55372 6.94043 1.78289C7.06093 2.01206 7.23264 2.19233 7.45557 2.32372C7.67849 2.45511 7.91799 2.51622 8.17405 2.50706C8.43011 2.49789 8.66358 2.42303 8.87445 2.28247C9.13955 2.56358 9.3685 2.8722 9.5613 3.20831C9.7541 3.54442 9.90172 3.89886 10.0041 4.27164C9.78122 4.38775 9.60197 4.55581 9.46641 4.77581C9.33085 4.99581 9.26307 5.2372 9.26307 5.49997C9.26307 5.76275 9.33085 6.00414 9.46641 6.22414C9.60197 6.44414 9.78122 6.6122 10.0041 6.72831C9.79327 7.4922 9.4167 8.15525 8.87445 8.71747C8.66358 8.57692 8.43011 8.50206 8.17405 8.49289C7.91799 8.48372 7.67849 8.54483 7.45557 8.67622C7.23264 8.80761 7.06093 8.98789 6.94043 9.21706C6.81993 9.44622 6.7657 9.68609 6.77775 9.93664C6.02463 10.1383 5.2715 10.1383 4.51838 9.93664C4.53043 9.68609 4.4762 9.44622 4.3557 9.21706C4.2352 8.98789 4.06349 8.80761 3.84057 8.67622C3.61764 8.54483 3.37815 8.48372 3.12209 8.49289C2.86602 8.50206 2.63255 8.57692 2.42168 8.71747C2.15658 8.43636 1.92763 8.12775 1.73483 7.79164ZM4.29244 7.88331C4.53344 8.02386 4.7413 8.20414 4.91603 8.42414C5.09075 8.64414 5.2233 8.88553 5.31368 9.14831C5.5366 9.17275 5.75953 9.17275 5.98245 9.14831C6.07283 8.88553 6.20387 8.64414 6.37559 8.42414C6.5473 8.20414 6.75516 8.02234 6.99917 7.87872C7.24319 7.73511 7.50377 7.64192 7.78092 7.59914C8.05807 7.55636 8.32919 7.56553 8.59429 7.62664C8.72684 7.4372 8.84132 7.23858 8.93772 7.03081C8.75094 6.82303 8.60785 6.58775 8.50844 6.32497C8.40902 6.0622 8.35932 5.7872 8.35932 5.49997C8.35932 5.21275 8.40902 4.93775 8.50844 4.67497C8.60785 4.4122 8.75094 4.17692 8.93772 3.96914C8.88952 3.86525 8.8368 3.76442 8.77956 3.66664C8.72232 3.56886 8.66057 3.47108 8.59429 3.37331C8.32919 3.43442 8.05807 3.44358 7.78092 3.40081C7.50377 3.35803 7.24469 3.26483 7.00369 3.12122C6.76269 2.97761 6.55483 2.79581 6.3801 2.57581C6.20538 2.35581 6.07283 2.11442 5.98245 1.85164C5.75953 1.8272 5.5366 1.8272 5.31368 1.85164C5.2233 2.11442 5.09226 2.35581 4.92055 2.57581C4.74884 2.79581 4.53947 2.97761 4.29244 3.12122C4.04542 3.26483 3.78484 3.35803 3.5107 3.40081C3.23656 3.44358 2.96694 3.43442 2.70184 3.37331C2.56929 3.56275 2.45482 3.76136 2.35842 3.96914C2.54519 4.17692 2.68829 4.4122 2.7877 4.67497C2.88711 4.93775 2.93682 5.21275 2.93682 5.49997C2.93682 5.7872 2.88711 6.0622 2.7877 6.32497C2.68829 6.58775 2.54519 6.82303 2.35842 7.03081C2.40662 7.1347 2.45934 7.23553 2.51657 7.33331C2.57381 7.43108 2.63557 7.52886 2.70184 7.62664C2.96694 7.56553 3.23807 7.55636 3.51522 7.59914C3.79237 7.64192 4.05144 7.73664 4.29244 7.88331ZM5.64807 6.87497C5.40104 6.87497 5.1736 6.81386 4.96574 6.69164C4.75787 6.56942 4.59369 6.40289 4.47319 6.19206C4.35269 5.98122 4.29244 5.75053 4.29244 5.49997C4.29244 5.24942 4.35269 5.01872 4.47319 4.80789C4.59369 4.59706 4.75787 4.43053 4.96574 4.30831C5.1736 4.18608 5.40104 4.12497 5.64807 4.12497C5.89509 4.12497 6.12254 4.18608 6.3304 4.30831C6.53826 4.43053 6.70244 4.59706 6.82294 4.80789C6.94344 5.01872 7.00369 5.24942 7.00369 5.49997C7.00369 5.75053 6.94344 5.98122 6.82294 6.19206C6.70244 6.40289 6.53826 6.56942 6.3304 6.69164C6.12254 6.81386 5.89509 6.87497 5.64807 6.87497ZM5.64807 5.95831C5.77459 5.95831 5.88154 5.914 5.9689 5.82539C6.05626 5.73678 6.09994 5.62831 6.09994 5.49997C6.09994 5.37164 6.05626 5.26317 5.9689 5.17456C5.88154 5.08595 5.77459 5.04164 5.64807 5.04164C5.52154 5.04164 5.4146 5.08595 5.32724 5.17456C5.23987 5.26317 5.19619 5.37164 5.19619 5.49997C5.19619 5.62831 5.23987 5.73678 5.32724 5.82539C5.4146 5.914 5.52154 5.95831 5.64807 5.95831Z" fill="#1E3A5F"/>
</svg>
