<svg width="16" height="15" viewBox="0 0 16 15" fill="none" xmlns="http://www.w3.org/2000/svg">
<path d="M5.82804 10.625C5.77876 10.975 5.6535 11.2938 5.45227 11.5813C5.25103 11.8688 4.99641 12.0938 4.6884 12.2563C4.38038 12.4188 4.04978 12.5 3.69659 12.5C3.34341 12.5 3.01281 12.4188 2.70479 12.2563C2.39678 12.0938 2.14216 11.8688 1.94092 11.5813C1.73969 11.2938 1.61443 10.975 1.56515 10.625H0.924479V3.125C0.924479 2.95 0.984028 2.80208 1.10313 2.68125C1.22222 2.56042 1.36802 2.5 1.5405 2.5H10.1649C10.3374 2.5 10.4831 2.56042 10.6022 2.68125C10.7213 2.80208 10.7809 2.95 10.7809 3.125V4.375H12.629L14.477 6.9125V10.625H13.2204C13.1711 10.975 13.0458 11.2938 12.8446 11.5813C12.6433 11.8688 12.3887 12.0938 12.0807 12.2563C11.7727 12.4188 11.4421 12.5 11.0889 12.5C10.7357 12.5 10.4051 12.4188 10.0971 12.2563C9.78909 12.0938 9.53446 11.8688 9.33323 11.5813C9.13199 11.2938 9.00674 10.975 8.95745 10.625H5.82804ZM9.54884 3.75H2.15653V8.7875C2.35366 8.57917 2.58569 8.41667 2.85264 8.3C3.11958 8.18333 3.4009 8.125 3.69659 8.125C4.12371 8.125 4.5118 8.23958 4.86088 8.46875C5.20996 8.69792 5.47075 9 5.64324 9.375H9.14226C9.24083 9.15833 9.37635 8.9625 9.54884 8.7875V3.75ZM10.7809 7.5H13.245V7.325L12.0129 5.625H10.7809V7.5ZM11.0889 11.25C11.286 11.25 11.4647 11.1917 11.6248 11.075C11.785 10.9583 11.8979 10.8083 11.9637 10.625C11.9965 10.525 12.0129 10.4208 12.0129 10.3125C12.0129 10.0542 11.9226 9.83333 11.7419 9.65C11.5612 9.46667 11.3435 9.375 11.0889 9.375C10.8343 9.375 10.6166 9.46667 10.4359 9.65C10.2552 9.83333 10.1649 10.0542 10.1649 10.3125C10.1649 10.4208 10.1813 10.525 10.2141 10.625C10.2799 10.8083 10.3928 10.9583 10.553 11.075C10.7131 11.1917 10.8918 11.25 11.0889 11.25ZM4.62063 10.3125C4.62063 10.0542 4.53028 9.83333 4.34958 9.65C4.16888 9.46667 3.95122 9.375 3.69659 9.375C3.44197 9.375 3.22431 9.46667 3.04361 9.65C2.86291 9.83333 2.77256 10.0542 2.77256 10.3125C2.77256 10.4208 2.78898 10.525 2.82184 10.625C2.88755 10.8083 3.00049 10.9583 3.16065 11.075C3.32082 11.1917 3.49947 11.25 3.69659 11.25C3.89372 11.25 4.07237 11.1917 4.23254 11.075C4.3927 10.9583 4.50564 10.8083 4.57135 10.625C4.60421 10.525 4.62063 10.4208 4.62063 10.3125Z" fill="#9333EA"/>
</svg>
