<svg width="18" height="25" viewBox="0 0 18 25" fill="none" xmlns="http://www.w3.org/2000/svg">
<path d="M14.0285 19.793H3.95677C3.56349 19.793 3.20139 19.6958 2.87046 19.5013C2.53953 19.3068 2.27815 19.0418 2.0863 18.7062C1.89446 18.3707 1.79854 18.0036 1.79854 17.6049V5.93503C1.79854 5.73081 1.86808 5.55819 2.00717 5.41718C2.14625 5.27617 2.31651 5.20566 2.51795 5.20566H12.5897C12.7911 5.20566 12.9614 5.27617 13.1005 5.41718C13.2396 5.55819 13.3091 5.73081 13.3091 5.93503V14.6874H16.1868V17.6049C16.1868 18.0036 16.0908 18.3707 15.899 18.7062C15.7071 19.0418 15.4458 19.3068 15.1148 19.5013C14.7839 19.6958 14.4218 19.793 14.0285 19.793ZM13.3091 16.1462V17.6049C13.3091 17.8091 13.3787 17.9817 13.5177 18.1228C13.6568 18.2638 13.8271 18.3343 14.0285 18.3343C14.23 18.3343 14.4002 18.2638 14.5393 18.1228C14.6784 17.9817 14.7479 17.8091 14.7479 17.6049V16.1462H13.3091ZM11.8703 18.3343V6.6644H3.23736V17.6049C3.23736 17.8091 3.3069 17.9817 3.44599 18.1228C3.58508 18.2638 3.75534 18.3343 3.95677 18.3343H11.8703ZM4.67618 8.8525H10.4315V10.3112H4.67618V8.8525ZM4.67618 11.77H10.4315V13.2287H4.67618V11.77ZM4.67618 14.6874H8.27323V16.1462H4.67618V14.6874Z" fill="#1E3A5F"/>
</svg>
