<svg width="18" height="25" viewBox="0 0 18 25" fill="none" xmlns="http://www.w3.org/2000/svg">
<path d="M8.99265 19.793C8.01425 19.793 7.07901 19.6034 6.18694 19.2241C5.33324 18.8545 4.57307 18.3318 3.90641 17.656C3.23976 16.9801 2.72418 16.2094 2.35968 15.3439C1.98559 14.4394 1.79854 13.4913 1.79854 12.4993C1.79854 11.5074 1.98559 10.5592 2.35968 9.6548C2.72418 8.78929 3.23976 8.01859 3.90641 7.34271C4.57307 6.66683 5.33324 6.14412 6.18694 5.77457C7.07901 5.3953 8.01425 5.20566 8.99265 5.20566C9.97104 5.20566 10.9063 5.3953 11.7983 5.77457C12.652 6.14412 13.4122 6.66683 14.0789 7.34271C14.7455 8.01859 15.2611 8.78929 15.6256 9.6548C15.9997 10.5592 16.1868 11.5074 16.1868 12.4993C16.1868 13.4913 15.9997 14.4394 15.6256 15.3439C15.2611 16.2094 14.7455 16.9801 14.0789 17.656C13.4122 18.3318 12.652 18.8545 11.7983 19.2241C10.9063 19.6034 9.97104 19.793 8.99265 19.793ZM8.99265 18.3343C10.0382 18.3343 11.007 18.0668 11.8991 17.532C12.7624 17.0165 13.4482 16.3212 13.9566 15.446C14.4841 14.5416 14.7479 13.5593 14.7479 12.4993C14.7479 11.4393 14.4841 10.4571 13.9566 9.55269C13.4482 8.67745 12.7624 7.98212 11.8991 7.4667C11.007 6.93183 10.0382 6.6644 8.99265 6.6644C7.9471 6.6644 6.9783 6.93183 6.08623 7.4667C5.22293 7.98212 4.5371 8.67745 4.02871 9.55269C3.50114 10.4571 3.23736 11.4393 3.23736 12.4993C3.23736 13.5593 3.50114 14.5416 4.02871 15.446C4.5371 16.3212 5.22293 17.0165 6.08623 17.532C6.9783 18.0668 7.9471 18.3343 8.99265 18.3343ZM8.27323 15.4168L5.22293 12.3243L6.2445 11.2886L8.27323 13.36L12.3451 9.23177L13.3667 10.2529L8.27323 15.4168Z" fill="#0284C7"/>
</svg>
