<svg width="17" height="17" viewBox="0 0 17 17" fill="none" xmlns="http://www.w3.org/2000/svg">
<path d="M8.38179 17C7.24187 17 6.15224 16.779 5.11289 16.337C4.11825 15.9064 3.23258 15.2972 2.45587 14.5096C1.67915 13.722 1.07846 12.8238 0.65378 11.8152C0.217927 10.7612 0 9.65629 0 8.50034C0 7.34439 0.217927 6.23943 0.65378 5.18547C1.07846 4.17685 1.67915 3.27872 2.45587 2.49108C3.23258 1.70345 4.11825 1.0943 5.11289 0.663654C6.15224 0.221672 7.24187 0.000679853 8.38179 0.000679853C9.52172 0.000679853 10.6114 0.221672 11.6507 0.663654C12.6453 1.0943 13.531 1.70345 14.3077 2.49108C15.0844 3.27872 15.6851 4.17685 16.1098 5.18547C16.5457 6.23943 16.7636 7.34439 16.7636 8.50034C16.7636 9.65629 16.5457 10.7612 16.1098 11.8152C15.6851 12.8238 15.0844 13.722 14.3077 14.5096C13.531 15.2972 12.6453 15.9064 11.6507 16.337C10.6114 16.779 9.52172 17 8.38179 17ZM8.38179 15.3001C9.59995 15.3001 10.7287 14.9884 11.768 14.3651C12.7739 13.7645 13.5729 12.9542 14.1652 11.9342C14.7799 10.8802 15.0872 9.73562 15.0872 8.50034C15.0872 7.26506 14.7799 6.12044 14.1652 5.06648C13.5729 4.04652 12.7739 3.23622 11.768 2.63557C10.7287 2.01227 9.59995 1.70061 8.38179 1.70061C7.16364 1.70061 6.03489 2.01227 4.99555 2.63557C3.98973 3.23622 3.19067 4.04652 2.59836 5.06648C1.98369 6.12044 1.67636 7.26506 1.67636 8.50034C1.67636 9.73562 1.98369 10.8802 2.59836 11.9342C3.19067 12.9542 3.98973 13.7645 4.99555 14.3651C6.03489 14.9884 7.16364 15.3001 8.38179 15.3001ZM4.1909 9.35031H11.7345V11.0502H8.38179V13.6001L4.1909 9.35031ZM8.38179 5.95044V3.40054L12.5727 7.65037H5.02908V5.95044H8.38179Z" fill="#1E3A5F"/>
</svg>
