<svg width="18" height="25" viewBox="0 0 18 25" fill="none" xmlns="http://www.w3.org/2000/svg">
<path d="M6.80567 16.1475C6.74812 16.5559 6.60184 16.9279 6.36683 17.2634C6.13182 17.5989 5.83447 17.8615 5.47476 18.0511C5.11505 18.2408 4.72897 18.3356 4.31651 18.3356C3.90405 18.3356 3.51796 18.2408 3.15826 18.0511C2.79855 17.8615 2.5012 17.5989 2.26619 17.2634C2.03118 16.9279 1.8849 16.5559 1.82735 16.1475H1.07916V7.3951C1.07916 7.19088 1.1487 7.01826 1.28779 6.87725C1.42688 6.73624 1.59714 6.66573 1.79857 6.66573H11.8703C12.0718 6.66573 12.242 6.73624 12.3811 6.87725C12.5202 7.01826 12.5897 7.19088 12.5897 7.3951V8.85383H14.748L16.9062 11.8151V16.1475H15.4386C15.381 16.5559 15.2348 16.9279 14.9998 17.2634C14.7647 17.5989 14.4674 17.8615 14.1077 18.0511C13.748 18.2408 13.3619 18.3356 12.9494 18.3356C12.537 18.3356 12.1509 18.2408 11.7912 18.0511C11.4315 17.8615 11.1341 17.5989 10.8991 17.2634C10.6641 16.9279 10.5178 16.5559 10.4603 16.1475H6.80567ZM11.1509 8.12447H2.51798V14.0032C2.74819 13.76 3.01917 13.5704 3.33092 13.4343C3.64266 13.2981 3.97119 13.23 4.31651 13.23C4.8153 13.23 5.26853 13.3638 5.67619 13.6312C6.08386 13.8986 6.38841 14.2511 6.58985 14.6888H10.6761C10.7912 14.4359 10.9495 14.2074 11.1509 14.0032V8.12447ZM12.5897 12.5007H15.4674V12.2964L14.0286 10.3126H12.5897V12.5007ZM12.9494 16.8769C13.1796 16.8769 13.3883 16.8088 13.5753 16.6726C13.7624 16.5365 13.8943 16.3614 13.971 16.1475C14.0094 16.0308 14.0286 15.9092 14.0286 15.7828C14.0286 15.4813 13.923 15.2236 13.712 15.0097C13.501 14.7957 13.2468 14.6888 12.9494 14.6888C12.6521 14.6888 12.3979 14.7957 12.1869 15.0097C11.9758 15.2236 11.8703 15.4813 11.8703 15.7828C11.8703 15.9092 11.8895 16.0308 11.9279 16.1475C12.0046 16.3614 12.1365 16.5365 12.3235 16.6726C12.5106 16.8088 12.7192 16.8769 12.9494 16.8769ZM5.39562 15.7828C5.39562 15.4813 5.29011 15.2236 5.07908 15.0097C4.86806 14.7957 4.61387 14.6888 4.31651 14.6888C4.01915 14.6888 3.76496 14.7957 3.55393 15.0097C3.34291 15.2236 3.23739 15.4813 3.23739 15.7828C3.23739 15.9092 3.25658 16.0308 3.29495 16.1475C3.37168 16.3614 3.50357 16.5365 3.69062 16.6726C3.87767 16.8088 4.0863 16.8769 4.31651 16.8769C4.54672 16.8769 4.75535 16.8088 4.9424 16.6726C5.12944 16.5365 5.26134 16.3614 5.33807 16.1475C5.37644 16.0308 5.39562 15.9092 5.39562 15.7828Z" fill="#D97706"/>
</svg>
