<svg width="11" height="11" viewBox="0 0 11 11" fill="none" xmlns="http://www.w3.org/2000/svg">
<path d="M1.03321 7.33333V1.04762H0V0H1.54982C1.69447 0 1.81674 0.0506347 1.91661 0.151905C2.01649 0.253175 2.06643 0.377143 2.06643 0.52381V6.80952H8.49302L9.52624 2.61905H3.09964V1.57143H10.1875C10.3321 1.57143 10.4544 1.62206 10.5543 1.72333C10.6542 1.8246 10.7041 1.94857 10.7041 2.09524C10.7041 2.13714 10.6972 2.17905 10.6834 2.22095L9.39192 7.45905C9.36437 7.57778 9.3041 7.67381 9.21111 7.74714C9.11812 7.82048 9.01307 7.85714 8.89597 7.85714H1.54982C1.40517 7.85714 1.28291 7.80651 1.18303 7.70524C1.08315 7.60397 1.03321 7.48 1.03321 7.33333ZM2.06643 11C1.88045 11 1.70825 10.9529 1.54982 10.8586C1.3914 10.7643 1.26569 10.6368 1.1727 10.4762C1.07971 10.3156 1.03321 10.141 1.03321 9.95238C1.03321 9.76381 1.07971 9.58921 1.1727 9.42857C1.26569 9.26794 1.3914 9.14048 1.54982 9.04619C1.70825 8.9519 1.88045 8.90476 2.06643 8.90476C2.25241 8.90476 2.42461 8.9519 2.58304 9.04619C2.74146 9.14048 2.86717 9.26794 2.96016 9.42857C3.05315 9.58921 3.09964 9.76381 3.09964 9.95238C3.09964 10.141 3.05315 10.3156 2.96016 10.4762C2.86717 10.6368 2.74146 10.7643 2.58304 10.8586C2.42461 10.9529 2.25241 11 2.06643 11ZM8.26571 11C8.07974 11 7.90753 10.9529 7.74911 10.8586C7.59068 10.7643 7.46497 10.6368 7.37198 10.4762C7.27899 10.3156 7.2325 10.141 7.2325 9.95238C7.2325 9.76381 7.27899 9.58921 7.37198 9.42857C7.46497 9.26794 7.59068 9.14048 7.74911 9.04619C7.90753 8.9519 8.07974 8.90476 8.26571 8.90476C8.45169 8.90476 8.6239 8.9519 8.78232 9.04619C8.94075 9.14048 9.06646 9.26794 9.15945 9.42857C9.25243 9.58921 9.29893 9.76381 9.29893 9.95238C9.29893 10.141 9.25243 10.3156 9.15945 10.4762C9.06646 10.6368 8.94075 10.7643 8.78232 10.8586C8.6239 10.9529 8.45169 11 8.26571 11Z" fill="#1D1D1F" fill-opacity="0.7"/>
</svg>
