<svg width="27" height="25" viewBox="0 0 27 25" fill="none" xmlns="http://www.w3.org/2000/svg">
<path d="M23.318 14.9416V18.6771H26.9998V21.1674H23.318V24.9029H20.8635V21.1674H17.1817V18.6771H20.8635V14.9416H23.318ZM23.318 -0.000333047C23.6617 -0.000333047 23.9521 0.120033 24.1894 0.360764C24.4267 0.601496 24.5453 0.896184 24.5453 1.24483V12.4513H22.0908V2.48999H2.45453V19.9223L14.7272 7.47064L18.409 11.2061V14.7175L14.7272 10.982L5.91542 19.9223H14.7272V22.4126H1.22727C0.883631 22.4126 0.593178 22.2922 0.355907 22.0515C0.118636 21.8108 0 21.5161 0 21.1674V1.24483C0 0.896184 0.118636 0.601496 0.355907 0.360764C0.593178 0.120033 0.883631 -0.000333047 1.22727 -0.000333047H23.318ZM7.36359 4.98032C7.80541 4.98032 8.2145 5.09238 8.59086 5.31651C8.96722 5.54064 9.26585 5.84363 9.48676 6.22548C9.70767 6.60733 9.81812 7.02238 9.81812 7.47064C9.81812 7.9189 9.70767 8.33395 9.48676 8.7158C9.26585 9.09765 8.96722 9.40064 8.59086 9.62477C8.2145 9.8489 7.80541 9.96096 7.36359 9.96096C6.92178 9.96096 6.51269 9.8489 6.13633 9.62477C5.75997 9.40064 5.46133 9.09765 5.24042 8.7158C5.01952 8.33395 4.90906 7.9189 4.90906 7.47064C4.90906 7.02238 5.01952 6.60733 5.24042 6.22548C5.46133 5.84363 5.75997 5.54064 6.13633 5.31651C6.51269 5.09238 6.92178 4.98032 7.36359 4.98032Z" fill="#1D1D1F" fill-opacity="0.2"/>
</svg>
