<svg width="22" height="25" viewBox="0 0 22 25" fill="none" xmlns="http://www.w3.org/2000/svg">
<path d="M19.5555 9.92001H20.7777C21.12 9.92001 21.4092 10.0399 21.6455 10.2796C21.8818 10.5194 22 10.8128 22 11.1601V23.5605C22 23.9077 21.8818 24.2012 21.6455 24.4409C21.4092 24.6807 21.12 24.8005 20.7777 24.8005H1.22222C0.879998 24.8005 0.59074 24.6807 0.354444 24.4409C0.118148 24.2012 0 23.9077 0 23.5605V11.1601C0 10.8128 0.118148 10.5194 0.354444 10.2796C0.59074 10.0399 0.879998 9.92001 1.22222 9.92001H2.44444V8.67997C2.44444 7.10925 2.83555 5.646 3.61777 4.29022C4.3674 2.98404 5.38592 1.95067 6.67332 1.19011C8.00962 0.396483 9.45184 -0.000331678 11 -0.000331678C12.5481 -0.000331678 13.9903 0.396483 15.3266 1.19011C16.614 1.95067 17.6326 2.98404 18.3822 4.29022C19.1644 5.646 19.5555 7.10925 19.5555 8.67997V9.92001ZM2.44444 12.4001V22.3204H19.5555V12.4001H2.44444ZM9.77776 14.8802H12.2222V19.8404H9.77776V14.8802ZM17.1111 9.92001V8.67997C17.1111 7.55566 16.8381 6.51816 16.2922 5.56746C15.7463 4.61676 15.0048 3.86447 14.0678 3.31058C13.1307 2.7567 12.1081 2.47975 11 2.47975C9.89183 2.47975 8.86924 2.7567 7.93221 3.31058C6.99517 3.86447 6.25369 4.61676 5.70777 5.56746C5.16184 6.51816 4.88888 7.55566 4.88888 8.67997V9.92001H17.1111Z" fill="#1D1D1F" fill-opacity="0.4"/>
</svg>
