<svg width="12" height="16" viewBox="0 0 12 16" fill="none" xmlns="http://www.w3.org/2000/svg">
<path d="M9.49528 10.5449V15.6248C9.49528 15.7334 9.45876 15.8223 9.38572 15.8914C9.31268 15.9605 9.22747 15.9951 9.13008 15.9951C9.06191 15.9951 8.99861 15.9803 8.94017 15.9506L5.84325 14.0697L2.74633 15.9506C2.65868 16 2.56616 16.0123 2.46877 15.9877C2.37139 15.963 2.29835 15.9062 2.24965 15.8173C2.2107 15.7581 2.19122 15.6939 2.19122 15.6248V10.5449C1.50951 9.99196 0.978745 9.32056 0.598933 8.53067C0.199644 7.71117 0 6.8423 0 5.92406C0 4.84785 0.267816 3.85062 0.803447 2.93238C1.3196 2.03389 2.01592 1.32299 2.89241 0.799697C3.79811 0.266525 4.78173 -5.95465e-05 5.84325 -5.95465e-05C6.90478 -5.95465e-05 7.88839 0.266525 8.79409 0.799697C9.67058 1.32299 10.3669 2.03389 10.8831 2.93238C11.4187 3.85062 11.6865 4.84785 11.6865 5.92406C11.6865 6.8423 11.4869 7.71117 11.0876 8.53067C10.7078 9.32056 10.177 9.99196 9.49528 10.5449ZM5.84325 10.3671C6.63209 10.3671 7.36737 10.1647 8.04908 9.75993C8.71131 9.36499 9.23721 8.83182 9.62676 8.16042C10.026 7.46927 10.2257 6.72135 10.2257 5.91666C10.2257 5.11196 10.026 4.36404 9.62676 3.6729C9.23721 3.00149 8.71131 2.47326 8.04908 2.08819C7.36737 1.68338 6.63209 1.48097 5.84325 1.48097C5.05441 1.48097 4.31914 1.68338 3.63742 2.08819C2.97519 2.47326 2.4493 3.00149 2.05975 3.6729C1.66046 4.36404 1.46081 5.11196 1.46081 5.91666C1.46081 6.72135 1.66046 7.46927 2.05975 8.16042C2.4493 8.83182 2.97519 9.36499 3.63742 9.75993C4.31914 10.1647 5.05441 10.3671 5.84325 10.3671ZM5.84325 8.88612C5.31736 8.88612 4.83042 8.75283 4.38244 8.48624C3.93446 8.21966 3.57899 7.85927 3.31605 7.40509C3.0531 6.95091 2.92163 6.45476 2.92163 5.91666C2.92163 5.37855 3.0531 4.8824 3.31605 4.42822C3.57899 3.97404 3.93446 3.61612 4.38244 3.35447C4.83042 3.09283 5.31736 2.962 5.84325 2.962C6.36914 2.962 6.85608 3.09283 7.30406 3.35447C7.75205 3.61612 8.10751 3.97404 8.37046 4.42822C8.6334 4.8824 8.76488 5.37855 8.76488 5.91666C8.76488 6.45476 8.6334 6.95091 8.37046 7.40509C8.10751 7.85927 7.75205 8.21966 7.30406 8.48624C6.85608 8.75283 6.36914 8.88612 5.84325 8.88612Z" fill="#1E3A5F"/>
</svg>
