<svg width="9" height="10" viewBox="0 0 9 10" fill="none" xmlns="http://www.w3.org/2000/svg">
<path d="M8.38313 10H0.493125C0.35505 10 0.238344 9.95167 0.143006 9.855C0.0476687 9.75833 0 9.64 0 9.5V0.5C0 0.360001 0.0476687 0.241667 0.143006 0.145C0.238344 0.0483332 0.35505 0 0.493125 0H8.38313C8.5212 0 8.63791 0.0483332 8.73324 0.145C8.82858 0.241667 8.87625 0.360001 8.87625 0.5V9.5C8.87625 9.64 8.82858 9.75833 8.73324 9.855C8.63791 9.95167 8.5212 10 8.38313 10ZM7.89 9V1H0.98625V9H7.89ZM2.46563 3.5H6.41062V4.5H2.46563V3.5ZM2.46563 5.5H6.41062V6.5H2.46563V5.5Z" fill="white"/>
</svg>
