<svg width="15" height="15" viewBox="0 0 15 15" fill="none" xmlns="http://www.w3.org/2000/svg">
<path d="M11.6777 10.7927L14.7938 13.9519L13.7599 15L10.6439 11.8409C10.0712 12.3034 9.44509 12.6577 8.76559 12.9038C8.04726 13.1596 7.30951 13.2876 6.55235 13.2876C5.36807 13.2876 4.26631 12.9874 3.24705 12.3871C2.25692 11.7966 1.47549 10.9994 0.902768 9.99558C0.300923 8.96222 0 7.84521 0 6.64454C0 5.44388 0.300923 4.32686 0.902768 3.2935C1.47549 2.28967 2.25692 1.49742 3.24705 0.916775C4.26631 0.306599 5.36807 0.00151252 6.55235 0.00151252C7.73663 0.00151252 8.83839 0.306599 9.85765 0.916775C10.8478 1.49742 11.6341 2.28967 12.2165 3.2935C12.8086 4.32686 13.1047 5.44388 13.1047 6.64454C13.1047 7.41218 12.9785 8.16014 12.7261 8.88841C12.4834 9.57732 12.134 10.2121 11.6777 10.7927ZM10.2071 10.2465C10.6633 9.77415 11.0177 9.23286 11.27 8.62269C11.5224 7.99283 11.6486 7.33345 11.6486 6.64454C11.6486 5.7096 11.4156 4.83862 10.9497 4.03162C10.5032 3.25414 9.89648 2.63904 9.12961 2.18633C8.33362 1.71394 7.47453 1.47774 6.55235 1.47774C5.63017 1.47774 4.77108 1.71394 3.97509 2.18633C3.20822 2.63904 2.60153 3.25414 2.155 4.03162C1.68905 4.83862 1.45608 5.7096 1.45608 6.64454C1.45608 7.57949 1.68905 8.45046 2.155 9.25747C2.60153 10.0349 3.20822 10.65 3.97509 11.1028C4.77108 11.5751 5.63017 11.8113 6.55235 11.8113C7.23185 11.8113 7.88223 11.6834 8.50349 11.4275C9.10534 11.1716 9.63923 10.8124 10.1052 10.3499L10.2071 10.2465Z" fill="#1D1D1F" fill-opacity="0.3"/>
</svg>
