<svg width="11" height="18" viewBox="0 0 11 18" fill="none" xmlns="http://www.w3.org/2000/svg">
<path d="M3.90683 4.83464V5.66797H6.37433V4.83464H7.19683V5.66797H8.84183C8.95698 5.66797 9.05431 5.70825 9.13381 5.7888C9.21332 5.86936 9.25308 5.96797 9.25308 6.08464V12.7513C9.25308 12.868 9.21332 12.9666 9.13381 13.0471C9.05431 13.1277 8.95698 13.168 8.84183 13.168H1.43933C1.32418 13.168 1.22685 13.1277 1.14734 13.0471C1.06783 12.9666 1.02808 12.868 1.02808 12.7513V6.08464C1.02808 5.96797 1.06783 5.86936 1.14734 5.7888C1.22685 5.70825 1.32418 5.66797 1.43933 5.66797H3.08433V4.83464H3.90683ZM8.43058 8.58464H1.85058V12.3346H8.43058V8.58464ZM6.39078 9.05964L6.96653 9.6513L4.93495 11.7096L3.47913 10.2346L4.0631 9.6513L4.93495 10.5346L6.39078 9.05964ZM3.08433 6.5013H1.85058V7.7513H8.43058V6.5013H7.19683V6.91797H6.37433V6.5013H3.90683V6.91797H3.08433V6.5013Z" fill="#0369A1"/>
</svg>
