<svg width="20" height="18" viewBox="0 0 20 18" fill="none" xmlns="http://www.w3.org/2000/svg">
<path d="M2.07171 5.92248L3.24963 16.1333H16.538L17.7159 5.92248L14.0349 8.42385L9.89382 2.54376L5.7527 8.42385L2.07171 5.92248ZM1.42753 3.2531L5.29258 5.86647L9.13921 0.397055C9.28645 0.185497 9.48584 0.0579385 9.73737 0.0143825C9.98891 -0.0291736 10.219 0.0237145 10.4276 0.173051C10.5134 0.235275 10.5871 0.309943 10.6484 0.397055L14.4951 5.86647L18.3601 3.2531C18.5687 3.11621 18.7987 3.07265 19.0503 3.12243C19.3018 3.17221 19.4951 3.30288 19.63 3.51444C19.765 3.70111 19.8141 3.90644 19.7773 4.13045L18.2681 17.1787C18.2435 17.4151 18.1454 17.6111 17.9736 17.7667C17.8018 17.9222 17.5994 18 17.3662 18H2.4214C2.18827 18 1.98582 17.9222 1.81404 17.7667C1.64226 17.6111 1.5441 17.4151 1.51956 17.1787L0.0103528 4.13045C-0.0264571 3.88155 0.0348927 3.65444 0.194402 3.4491C0.353912 3.24377 0.556367 3.12865 0.801766 3.10376C1.0349 3.07888 1.24349 3.12865 1.42753 3.2531ZM9.89382 12.3999C9.56253 12.3999 9.25578 12.3159 8.97357 12.1479C8.69136 11.9799 8.46743 11.7528 8.30179 11.4666C8.13614 11.1803 8.05332 10.8692 8.05332 10.5332C8.05332 10.1972 8.13614 9.88609 8.30179 9.59987C8.46743 9.31364 8.69136 9.08653 8.97357 8.91852C9.25578 8.75052 9.56253 8.66652 9.89382 8.66652C10.2251 8.66652 10.5319 8.75052 10.8141 8.91852C11.0963 9.08653 11.3202 9.31364 11.4858 9.59987C11.6515 9.88609 11.7343 10.1972 11.7343 10.5332C11.7343 10.8692 11.6515 11.1803 11.4858 11.4666C11.3202 11.7528 11.0963 11.9799 10.8141 12.1479C10.5319 12.3159 10.2251 12.3999 9.89382 12.3999Z" fill="#1E3A5F"/>
</svg>
