<svg width="11" height="18" viewBox="0 0 11 18" fill="none" xmlns="http://www.w3.org/2000/svg">
<path d="M7.40246 12.75C7.13926 12.75 6.89799 12.6847 6.67866 12.5542C6.45932 12.4236 6.28523 12.2472 6.15637 12.025C6.02751 11.8028 5.96308 11.5583 5.96308 11.2917C5.96308 11.025 6.02751 10.7806 6.15637 10.5583C6.28523 10.3361 6.45932 10.1597 6.67866 10.0292C6.89799 9.89861 7.13926 9.83333 7.40246 9.83333C7.66566 9.83333 7.90692 9.89861 8.12626 10.0292C8.34559 10.1597 8.51969 10.3361 8.64854 10.5583C8.7774 10.7806 8.84183 11.025 8.84183 11.2917C8.84183 11.5583 8.7774 11.8028 8.64854 12.025C8.51969 12.2472 8.34559 12.4236 8.12626 12.5542C7.90692 12.6847 7.66566 12.75 7.40246 12.75ZM7.40246 11.9167C7.57244 11.9167 7.71775 11.8556 7.83838 11.7333C7.95901 11.6111 8.01933 11.4639 8.01933 11.2917C8.01933 11.1194 7.95901 10.9722 7.83838 10.85C7.71775 10.7278 7.57244 10.6667 7.40246 10.6667C7.23247 10.6667 7.08716 10.7278 6.96653 10.85C6.8459 10.9722 6.78558 11.1194 6.78558 11.2917C6.78558 11.4639 6.8459 11.6111 6.96653 11.7333C7.08716 11.8556 7.23247 11.9167 7.40246 11.9167ZM2.87871 8.16667C2.61551 8.16667 2.37424 8.10139 2.15491 7.97083C1.93557 7.84028 1.76148 7.66389 1.63262 7.44167C1.50376 7.21944 1.43933 6.975 1.43933 6.70833C1.43933 6.44167 1.50376 6.19722 1.63262 5.975C1.76148 5.75278 1.93557 5.57639 2.15491 5.44583C2.37424 5.31528 2.61551 5.25 2.87871 5.25C3.14191 5.25 3.38317 5.31528 3.60251 5.44583C3.82184 5.57639 3.99594 5.75278 4.12479 5.975C4.25365 6.19722 4.31808 6.44167 4.31808 6.70833C4.31808 6.975 4.25365 7.21944 4.12479 7.44167C3.99594 7.66389 3.82184 7.84028 3.60251 7.97083C3.38317 8.10139 3.14191 8.16667 2.87871 8.16667ZM2.87871 7.33333C3.04869 7.33333 3.194 7.27222 3.31463 7.15C3.43526 7.02778 3.49558 6.88056 3.49558 6.70833C3.49558 6.53611 3.43526 6.38889 3.31463 6.26667C3.194 6.14444 3.04869 6.08333 2.87871 6.08333C2.70872 6.08333 2.56341 6.14444 2.44278 6.26667C2.32215 6.38889 2.26183 6.53611 2.26183 6.70833C2.26183 6.88056 2.32215 7.02778 2.44278 7.15C2.56341 7.27222 2.70872 7.33333 2.87871 7.33333ZM8.05223 5.46667L8.62798 6.05L2.22893 12.5333L1.65318 11.95L8.05223 5.46667Z" fill="#047857"/>
</svg>
