<svg width="18" height="18" viewBox="0 0 18 18" fill="none" xmlns="http://www.w3.org/2000/svg">
<path d="M9.00001 16.0606C8.02081 16.0606 7.08481 15.8708 6.19201 15.4912C5.33761 15.1213 4.57681 14.5982 3.90961 13.9218C3.24241 13.2453 2.72641 12.474 2.36161 11.6078C1.98721 10.7026 1.80001 9.75366 1.80001 8.76091C1.80001 7.76816 1.98721 6.8192 2.36161 5.91405C2.72641 5.04782 3.24241 4.27649 3.90961 3.60006C4.57681 2.92363 5.33761 2.40049 6.19201 2.03064C7.08481 1.65106 8.02081 1.46126 9.00001 1.46126C9.97921 1.46126 10.9152 1.65106 11.808 2.03064C12.6624 2.40049 13.4232 2.92363 14.0904 3.60006C14.7576 4.27649 15.2736 5.04782 15.6384 5.91405C16.0128 6.8192 16.2 7.76816 16.2 8.76091C16.2 9.75366 16.0128 10.7026 15.6384 11.6078C15.2736 12.474 14.7576 13.2453 14.0904 13.9218C13.4232 14.5982 12.6624 15.1213 11.808 15.4912C10.9152 15.8708 9.97921 16.0606 9.00001 16.0606ZM9.00001 14.6006C10.0464 14.6006 11.016 14.333 11.9088 13.7977C12.7728 13.2818 13.4592 12.5859 13.968 11.71C14.496 10.8048 14.76 9.82179 14.76 8.76091C14.76 7.70003 14.496 6.71701 13.968 5.81185C13.4592 4.9359 12.7728 4.24 11.9088 3.72415C11.016 3.18885 10.0464 2.92119 9.00001 2.92119C7.95361 2.92119 6.98401 3.18885 6.09121 3.72415C5.22721 4.24 4.54081 4.9359 4.03201 5.81185C3.50401 6.71701 3.24001 7.70003 3.24001 8.76091C3.24001 9.82179 3.50401 10.8048 4.03201 11.71C4.54081 12.5859 5.22721 13.2818 6.09121 13.7977C6.98401 14.333 7.95361 14.6006 9.00001 14.6006ZM9.72001 8.76091H12.6V10.2208H8.28001V5.11109H9.72001V8.76091Z" fill="#D97706"/>
</svg>
