<svg width="21" height="20" viewBox="0 0 21 20" fill="none" xmlns="http://www.w3.org/2000/svg">
<path d="M10.2722 18.3347C9.15461 18.3347 8.0863 18.118 7.0673 17.6847C6.09212 17.2624 5.22378 16.6652 4.46226 15.893C3.70075 15.1208 3.11181 14.2402 2.69544 13.2513C2.26812 12.218 2.05446 11.1347 2.05446 10.0013C2.05446 8.868 2.26812 7.78467 2.69544 6.75133C3.11181 5.76244 3.70075 4.88189 4.46226 4.10967C5.22378 3.33745 6.09212 2.74022 7.0673 2.318C8.0863 1.88467 9.15461 1.668 10.2722 1.668C11.3898 1.668 12.4582 1.88467 13.4772 2.318C14.4523 2.74022 15.3207 3.33745 16.0822 4.10967C16.8437 4.88189 17.4327 5.76244 17.849 6.75133C18.2763 7.78467 18.49 8.868 18.49 10.0013C18.49 11.1347 18.2763 12.218 17.849 13.2513C17.4327 14.2402 16.8437 15.1208 16.0822 15.893C15.3207 16.6652 14.4523 17.2624 13.4772 17.6847C12.4582 18.118 11.3898 18.3347 10.2722 18.3347ZM10.2722 16.668C11.4665 16.668 12.5732 16.3624 13.5922 15.7513C14.5783 15.1624 15.3618 14.368 15.9425 13.368C16.5451 12.3347 16.8464 11.2124 16.8464 10.0013C16.8464 8.79022 16.5451 7.668 15.9425 6.63467C15.3618 5.63467 14.5783 4.84022 13.5922 4.25133C12.5732 3.64022 11.4665 3.33467 10.2722 3.33467C9.07791 3.33467 7.97125 3.64022 6.95225 4.25133C5.96612 4.84022 5.18269 5.63467 4.60197 6.63467C3.99933 7.668 3.69801 8.79022 3.69801 10.0013C3.69801 11.2124 3.99933 12.3347 4.60197 13.368C5.18269 14.368 5.96612 15.1624 6.95225 15.7513C7.97125 16.3624 9.07791 16.668 10.2722 16.668ZM9.45045 5.83467H11.094V7.50133H9.45045V5.83467ZM9.45045 9.168H11.094V14.168H9.45045V9.168Z" fill="#1E3A5F"/>
</svg>
