<svg width="10" height="9" viewBox="0 0 10 9" fill="none" xmlns="http://www.w3.org/2000/svg">
<path d="M0.897379 8.0908V2.04463C0.897379 1.94765 0.9243 1.85976 0.978143 1.78096C1.03199 1.70217 1.10378 1.64761 1.19351 1.61731L5.52785 0.0171182C5.58768 -0.00712739 5.64601 -0.00561243 5.70284 0.0216641C5.75968 0.0489397 5.79707 0.092885 5.81502 0.153498C5.82698 0.177744 5.83296 0.201988 5.83296 0.226234V2.48105L8.66868 3.4357C8.75842 3.46601 8.8317 3.52208 8.88854 3.60391C8.94537 3.68573 8.97379 3.77514 8.97379 3.87212V8.0908H9.87117V9H0V8.0908H0.897379ZM1.79476 8.0908H4.93558V1.19908L1.79476 2.36285V8.0908ZM8.07641 8.0908V4.19943L5.83296 3.4357V8.0908H8.07641Z" fill="#1D1D1F" fill-opacity="0.4"/>
</svg>
