<svg width="11" height="11" viewBox="0 0 11 11" fill="none" xmlns="http://www.w3.org/2000/svg">
<path d="M2.26802 8.80003C2.37654 8.47737 2.57187 8.21338 2.85401 8.00804C3.13616 7.80271 3.45086 7.70005 3.79812 7.70005C4.14537 7.70005 4.46007 7.80271 4.74222 8.00804C5.02437 8.21338 5.2197 8.47737 5.32821 8.80003H10.8518V9.90002H5.32821C5.2197 10.2227 5.02437 10.4867 4.74222 10.692C4.46007 10.8973 4.14537 11 3.79812 11C3.45086 11 3.13616 10.8973 2.85401 10.692C2.57187 10.4867 2.37654 10.2227 2.26802 9.90002H0V8.80003H2.26802ZM5.52355 4.95009C5.63206 4.62743 5.8274 4.36343 6.10954 4.1581C6.39169 3.95277 6.70639 3.85011 7.05364 3.85011C7.4009 3.85011 7.7156 3.95277 7.99775 4.1581C8.27989 4.36343 8.47523 4.62743 8.58374 4.95009H10.8518V6.05007H8.58374C8.47523 6.37274 8.27989 6.63673 7.99775 6.84206C7.7156 7.04739 7.4009 7.15006 7.05364 7.15006C6.70639 7.15006 6.39169 7.04739 6.10954 6.84206C5.8274 6.63673 5.63206 6.37274 5.52355 6.05007H0V4.95009H5.52355ZM2.26802 1.10015C2.37654 0.777487 2.57187 0.513491 2.85401 0.308161C3.13616 0.10283 3.45086 0.000165585 3.79812 0.000165585C4.14537 0.000165585 4.46007 0.10283 4.74222 0.308161C5.02437 0.513491 5.2197 0.777487 5.32821 1.10015H10.8518V2.20013H5.32821C5.2197 2.52279 5.02437 2.78679 4.74222 2.99212C4.46007 3.19745 4.14537 3.30012 3.79812 3.30012C3.45086 3.30012 3.13616 3.19745 2.85401 2.99212C2.57187 2.78679 2.37654 2.52279 2.26802 2.20013H0V1.10015H2.26802ZM3.79812 2.20013C3.95004 2.20013 4.07845 2.14697 4.18335 2.04064C4.28825 1.9343 4.3407 1.80414 4.3407 1.65014C4.3407 1.49614 4.28825 1.36598 4.18335 1.25965C4.07845 1.15331 3.95004 1.10015 3.79812 1.10015C3.64619 1.10015 3.51778 1.15331 3.41288 1.25965C3.30798 1.36598 3.25553 1.49614 3.25553 1.65014C3.25553 1.80414 3.30798 1.9343 3.41288 2.04064C3.51778 2.14697 3.64619 2.20013 3.79812 2.20013ZM7.05364 6.05007C7.20557 6.05007 7.33398 5.99691 7.43888 5.89058C7.54378 5.78425 7.59623 5.65408 7.59623 5.50008C7.59623 5.34609 7.54378 5.21592 7.43888 5.10959C7.33398 5.00326 7.20557 4.95009 7.05364 4.95009C6.90172 4.95009 6.77331 5.00326 6.66841 5.10959C6.56351 5.21592 6.51106 5.34609 6.51106 5.50008C6.51106 5.65408 6.56351 5.78425 6.66841 5.89058C6.77331 5.99691 6.90172 6.05007 7.05364 6.05007ZM3.79812 9.90002C3.95004 9.90002 4.07845 9.84685 4.18335 9.74052C4.28825 9.63419 4.3407 9.50402 4.3407 9.35002C4.3407 9.19603 4.28825 9.06586 4.18335 8.95953C4.07845 8.8532 3.95004 8.80003 3.79812 8.80003C3.64619 8.80003 3.51778 8.8532 3.41288 8.95953C3.30798 9.06586 3.25553 9.19603 3.25553 9.35002C3.25553 9.50402 3.30798 9.63419 3.41288 9.74052C3.51778 9.84685 3.64619 9.90002 3.79812 9.90002Z" fill="#1E3A5F"/>
</svg>
