<svg width="19" height="19" viewBox="0 0 19 19" fill="none" xmlns="http://www.w3.org/2000/svg">
<path d="M14.7876 13.6703L18.7334 17.6722L17.4243 19L13.4785 14.998C12.7532 15.584 11.9604 16.0328 11.0999 16.3445C10.1903 16.6686 9.25606 16.8307 8.29727 16.8307C6.79761 16.8307 5.40244 16.4505 4.11176 15.6899C2.85795 14.9419 1.86842 13.9321 1.14318 12.6604C0.38106 11.3514 0 9.93632 0 8.41532C0 6.89431 0.38106 5.47928 1.14318 4.17022C1.86842 2.89857 2.85795 1.89495 4.11176 1.15939C5.40244 0.386417 6.79761 -6.62911e-05 8.29727 -6.62911e-05C9.79692 -6.62911e-05 11.1921 0.386417 12.4828 1.15939C13.7366 1.89495 14.7323 2.89857 15.4698 4.17022C16.2196 5.47928 16.5945 6.89431 16.5945 8.41532C16.5945 9.38776 16.4347 10.3353 16.1151 11.2578C15.8078 12.1306 15.3653 12.9347 14.7876 13.6703ZM12.9253 12.9783C13.503 12.3799 13.9517 11.6942 14.2713 10.9212C14.5909 10.1233 14.7507 9.28802 14.7507 8.41532C14.7507 7.23093 14.4557 6.12758 13.8657 5.10527C13.3002 4.12035 12.5319 3.34115 11.5609 2.76766C10.5529 2.16923 9.46503 1.87002 8.29727 1.87002C7.12951 1.87002 6.04164 2.16923 5.03368 2.76766C4.06259 3.34115 3.29432 4.12035 2.72888 5.10527C2.13885 6.12758 1.84384 7.23093 1.84384 8.41532C1.84384 9.5997 2.13885 10.7031 2.72888 11.7254C3.29432 12.7103 4.06259 13.4895 5.03368 14.063C6.04164 14.6614 7.12951 14.9606 8.29727 14.9606C9.15773 14.9606 9.98131 14.7985 10.768 14.4744C11.5301 14.1502 12.2062 13.6952 12.7962 13.1092L12.9253 12.9783Z" fill="#1D1D1F" fill-opacity="0.3"/>
</svg>
