<svg width="22" height="26" viewBox="0 0 22 26" fill="none" xmlns="http://www.w3.org/2000/svg">
<path d="M3.6609 8.66667V7.42857C3.6609 6.09143 3.99445 4.84508 4.66155 3.68952C5.31237 2.56698 6.19099 1.67555 7.2974 1.01524C8.43634 0.338413 9.66478 0 10.9827 0C12.3006 0 13.5291 0.338413 14.668 1.01524C15.7744 1.67555 16.653 2.56698 17.3039 3.68952C17.971 4.84508 18.3045 6.09143 18.3045 7.42857V8.66667H20.7451C21.0868 8.66667 21.3756 8.78635 21.6115 9.02571C21.8474 9.26508 21.9654 9.5581 21.9654 9.90476V24.7619C21.9654 25.1086 21.8474 25.4016 21.6115 25.641C21.3756 25.8803 21.0868 26 20.7451 26H1.2203C0.878616 26 0.589812 25.8803 0.353887 25.641C0.117962 25.4016 0 25.1086 0 24.7619V9.90476C0 9.5581 0.117962 9.26508 0.353887 9.02571C0.589812 8.78635 0.878616 8.66667 1.2203 8.66667H3.6609ZM19.5248 11.1429H2.4406V23.5238H19.5248V11.1429ZM9.7624 18.2495C9.38818 18.0184 9.09124 17.713 8.87159 17.3333C8.65193 16.9537 8.5421 16.541 8.5421 16.0952C8.5421 15.6495 8.65193 15.2368 8.87159 14.8571C9.09124 14.4775 9.38818 14.1762 9.7624 13.9533C10.1366 13.7305 10.5434 13.619 10.9827 13.619C11.422 13.619 11.8288 13.7305 12.203 13.9533C12.5772 14.1762 12.8742 14.4775 13.0938 14.8571C13.3135 15.2368 13.4233 15.6495 13.4233 16.0952C13.4233 16.541 13.3135 16.9537 13.0938 17.3333C12.8742 17.713 12.5772 18.0184 12.203 18.2495V21.0476H9.7624V18.2495ZM6.1015 8.66667H15.8639V7.42857C15.8639 6.53714 15.6443 5.71175 15.2049 4.95238C14.7656 4.19302 14.1718 3.59048 13.4233 3.14476C12.6749 2.69905 11.8613 2.47619 10.9827 2.47619C10.1041 2.47619 9.29055 2.69905 8.5421 3.14476C7.79365 3.59048 7.19977 4.19302 6.76046 4.95238C6.32116 5.71175 6.1015 6.53714 6.1015 7.42857V8.66667Z" fill="#F87171"/>
</svg>
