<svg width="198" height="36" viewBox="0 0 198 36" fill="none" xmlns="http://www.w3.org/2000/svg">
<path d="M12.2064 0.00545478C12.6583 0.00594619 13.1103 0.00613155 13.5622 0.00602622C14.5035 0.00666629 15.4448 0.0100498 16.3862 0.0156026C17.5946 0.0226399 18.8029 0.0241671 20.0113 0.023856C20.9417 0.0239676 21.8721 0.0262193 22.8026 0.0292067C23.2485 0.0305178 23.6944 0.0313277 24.1403 0.0316322C24.7604 0.0325203 25.3804 0.0361128 26.0004 0.0405202C26.1853 0.0403337 26.3701 0.0401472 26.5605 0.039955C27.8276 0.0531855 27.8276 0.0531856 28.2863 0.511844C28.2987 1.28654 27.9974 1.68124 27.4881 2.22071C27.2377 2.46785 26.9849 2.71265 26.7301 2.95537C26.5322 3.14849 26.5322 3.14849 26.3304 3.34551C25.5693 4.08344 24.7924 4.79594 23.9812 5.47847C23.2586 6.1263 22.5872 6.82752 21.9145 7.52664C21.6452 7.80227 21.3655 8.06766 21.0843 8.33113C20.9485 8.33113 20.8127 8.33113 20.6728 8.33113C20.6728 8.46694 20.6728 8.60275 20.6728 8.74267C20.4212 8.98944 20.4212 8.98944 20.0426 9.29568C19.0011 10.1775 18.0535 11.1447 17.0991 12.1183C16.4621 12.7639 15.8174 13.3854 15.1298 13.977C14.2219 14.7599 13.3845 15.6041 12.5448 16.4591C11.5708 17.4508 10.5857 18.4054 9.53181 19.3121C8.96601 19.8101 8.44086 20.3437 7.91498 20.8831C7.25629 21.5509 6.59983 22.2062 5.883 22.8122C4.92125 23.6279 4.04828 24.5338 3.16628 25.4337C1.58397 27.039 1.58397 27.039 0.76445 27.0948C0.611666 27.0821 0.458881 27.0694 0.301466 27.0563C-0.0368806 26.3796 0.0616497 25.6278 0.0592738 24.8838C0.0579216 24.7014 0.0565695 24.5189 0.0551763 24.331C0.0511079 23.7248 0.0487131 23.1186 0.0466643 22.5124C0.0458257 22.305 0.0449874 22.0976 0.0441234 21.8839C0.0398256 20.7841 0.0368857 19.6843 0.0349591 18.5846C0.0326929 17.4536 0.0256284 16.3227 0.0174334 15.1918C0.0120243 14.3184 0.0103281 13.4451 0.00959176 12.5717C0.00859539 12.1553 0.00621891 11.7388 0.00238118 11.3223C-0.0265432 7.97277 0.173209 5.15456 2.56494 2.56955C5.40165 -0.0550623 8.5622 -0.0208038 12.2064 0.00545478Z" fill="#025AF0"/>
<path d="M92.4867 13.4753C94.3952 15.4423 95.0156 17.7097 95.0211 20.3948C94.9772 22.7946 94.1564 24.8671 92.5325 26.6301C89.8063 29.2281 86.0252 29.445 82.457 29.3654C78.9183 29.2393 75.7661 28.4309 73.2471 25.807C72.7151 25.1227 72.4278 24.3591 72.1154 23.558C72.0451 23.4328 71.9748 23.3075 71.9024 23.1784C71.6785 22.6783 71.6507 22.3347 71.6492 21.7889C71.6483 21.608 71.6474 21.4272 71.6465 21.2409C71.6484 21.0506 71.6504 20.8604 71.6524 20.6644C71.6541 20.4696 71.6558 20.2749 71.6575 20.0742C71.6983 17.5258 71.9717 15.7557 73.7704 13.8538C78.2876 9.57652 87.7742 9.40614 92.4867 13.4753Z" fill="#055DF0"/>
<path d="M19.2325 17.7968C20.2273 18.3719 20.9956 19.0917 21.7917 19.9059C21.9017 20.016 22.0116 20.1261 22.1249 20.2395C22.7105 20.8315 23.2698 21.4375 23.8117 22.0697C24.7341 23.1346 25.7404 24.1131 26.7431 25.1016C27.8556 26.1984 28.9461 27.2935 29.9625 28.4801C30.7774 29.3948 31.6605 30.2456 32.5304 31.1076C32.7214 31.2976 32.9124 31.4877 33.1091 31.6835C33.4641 32.0367 33.8192 32.3896 34.1747 32.7422C34.6823 33.2465 35.1884 33.7522 35.6941 34.2584C35.762 34.3263 35.8299 34.3943 35.8999 34.4642C35.9083 34.8757 35.9087 35.2874 35.8999 35.6988C35.2462 36.0257 34.54 35.9386 33.8219 35.941C33.6495 35.9424 33.4771 35.9437 33.2995 35.9451C32.7267 35.9492 32.1539 35.9516 31.5811 35.9536C31.3851 35.9545 31.189 35.9553 30.987 35.9562C29.9473 35.9605 28.9075 35.9634 27.8678 35.9653C26.7991 35.9676 25.7305 35.9747 24.6618 35.9829C23.8361 35.9883 23.0105 35.99 22.1848 35.9907C21.7913 35.9917 21.3978 35.9941 21.0043 35.9979C17.8343 36.0269 15.1607 35.8089 12.6478 33.6411C12.1933 33.1899 11.8057 32.706 11.4132 32.2007C11.1904 31.9354 11.1904 31.9354 10.9631 31.6646C8.38927 28.5955 8.38927 28.5955 8.49623 26.7864C8.50817 26.6718 8.5201 26.5572 8.5324 26.4392C8.66821 26.4392 8.80402 26.4392 8.94394 26.4392C8.95667 26.3235 8.96941 26.2079 8.98252 26.0887C9.22254 25.4102 9.63835 25.1114 10.1786 24.6387C10.4031 24.4391 10.6273 24.2392 10.8513 24.039C10.9738 23.9302 11.0962 23.8214 11.2224 23.7093C11.9613 23.0447 12.6833 22.3622 13.4066 21.6807C13.5569 21.5395 13.7072 21.3983 13.8621 21.2528C14.8 20.3688 15.7178 19.4717 16.6065 18.5379C17.428 17.7911 18.1325 17.683 19.2325 17.7968Z" fill="#025BF0"/>
<path d="M152.983 11.2119C158.128 11.2119 158.128 11.2119 159.259 12.0993C159.51 12.4826 159.75 12.873 159.98 13.2696C160.274 13.6388 160.574 14.0031 160.88 14.3628C161.11 14.6465 161.11 14.6465 161.344 14.9359C162.783 16.6996 164.271 18.4225 165.771 20.1342C166.749 21.2557 167.678 22.4041 168.622 23.5582C168.69 19.4839 168.758 15.4096 168.828 11.2119C170.186 11.2119 171.544 11.2119 172.943 11.2119C172.943 17.0517 172.943 22.8915 172.943 28.9082C167.799 28.9082 167.799 28.9082 166.204 27.4292C165.629 26.5973 165.629 26.5973 165.376 26.194C165.014 25.6598 164.559 25.2371 164.095 24.7928C164.006 24.6358 163.917 24.4787 163.825 24.3169C163.392 23.6274 162.853 23.1226 162.272 22.5558C161.61 21.8972 160.953 21.2193 160.391 20.4716C160.391 20.3358 160.391 20.2 160.391 20.0601C160.255 20.0601 160.12 20.0601 159.98 20.0601C159.706 19.7489 159.447 19.4249 159.195 19.0955C158.597 18.3146 158.011 17.6797 157.305 16.9735C157.237 20.9119 157.169 24.8504 157.099 28.9082C155.741 28.9082 154.383 28.9082 152.983 28.9082C152.983 23.0684 152.983 17.2286 152.983 11.2119Z" fill="#055CEF"/>
<path d="M98.8656 11.212C101.085 11.1992 103.305 11.1865 105.592 11.1734C106.635 11.165 106.635 11.165 107.699 11.1564C108.258 11.1546 108.816 11.153 109.375 11.1517C109.516 11.1501 109.658 11.1485 109.803 11.1468C112.884 11.1135 115.405 11.425 117.726 13.5872C118.794 14.746 118.922 16.1261 118.89 17.6359C118.758 18.7988 118.281 19.6851 117.591 20.6131C116.189 21.6936 114.592 22.4017 112.858 22.7351C113.226 23.0744 113.595 23.4129 113.964 23.7511C114.069 23.8475 114.173 23.944 114.281 24.0433C114.863 24.5824 114.863 24.5824 115.533 24.9986C115.533 25.1344 115.533 25.2702 115.533 25.4102C115.653 25.4644 115.773 25.5186 115.897 25.5745C116.376 25.8324 116.716 26.1135 117.112 26.4848C117.248 26.6125 117.385 26.7403 117.526 26.8718C117.666 27.0049 117.806 27.1379 117.951 27.275C118.094 27.4088 118.238 27.5426 118.386 27.6805C119.163 28.4109 119.163 28.4109 119.443 28.7025C119.443 28.7704 119.443 28.8383 119.443 28.9083C117.473 28.9083 115.504 28.9083 113.475 28.9083C113.475 28.7724 113.475 28.6366 113.475 28.4967C113.362 28.4508 113.248 28.4049 113.131 28.3577C112.502 27.9997 112.075 27.5383 111.572 27.0177C110.813 26.2423 110.042 25.5007 109.217 24.7969C108.425 24.1026 107.66 23.3781 106.893 22.6565C106.775 22.5458 106.656 22.4352 106.535 22.3212C106.421 22.2147 106.307 22.1083 106.19 21.9986C105.828 21.6669 105.828 21.6669 105.26 21.265C105.119 21.139 104.978 21.013 104.833 20.8832C104.833 20.6116 104.833 20.34 104.833 20.0601C105.029 20.0571 105.225 20.0541 105.427 20.051C106.162 20.039 106.897 20.0231 107.632 20.0061C107.949 19.9993 108.266 19.9935 108.583 19.9888C111.093 19.9642 111.093 19.9642 113.475 19.237C114.072 18.1867 113.924 17.0517 113.835 15.8804C113.739 15.315 113.739 15.315 113.334 15.0702C113.177 15.0192 113.02 14.9683 112.858 14.9158C112.685 14.8465 112.512 14.7772 112.334 14.7058C111.43 14.4494 110.593 14.4315 109.657 14.4191C109.41 14.4137 109.41 14.4137 109.159 14.4081C108.548 14.3952 107.938 14.3856 107.328 14.3757C105.961 14.3502 104.595 14.3248 103.187 14.2985C103.187 19.1197 103.187 23.941 103.187 28.9083C101.761 28.9083 100.335 28.9083 98.8656 28.9083C98.8656 23.0685 98.8656 17.2287 98.8656 11.212Z" fill="#055FF0"/>
<path d="M50.921 11.2117C52.347 11.2117 53.773 11.2117 55.2422 11.2117C55.2422 13.9278 55.2422 16.644 55.2422 19.4425C55.9891 18.8313 56.7361 18.2202 57.5056 17.5905C58.0541 17.1444 58.6028 16.6985 59.1518 16.253C60.1004 15.4829 61.0484 14.7119 61.994 13.9381C62.176 13.7951 62.3579 13.6522 62.5454 13.5049C63.0755 13.0763 63.0755 13.0763 63.5003 12.5387C64.5336 11.4126 65.2377 11.1677 66.7492 11.0959C68.1973 11.0769 69.6411 11.1255 71.0865 11.2117C70.2846 12.0459 69.429 12.7768 68.5272 13.5009C68.3827 13.6175 68.2382 13.7342 68.0893 13.8544C65.8213 15.6812 63.5215 17.4662 61.2095 19.2367C61.5348 20.1378 62.2428 20.641 62.9586 21.2301C63.2216 21.4507 63.4844 21.6714 63.7471 21.8924C63.8762 22.0007 64.0052 22.1089 64.1382 22.2204C64.6254 22.6339 65.0978 23.0624 65.5693 23.4936C66.2599 24.1209 66.9662 24.7198 67.6913 25.3069C69.0916 26.4411 70.4327 27.6305 71.7038 28.9079C65.642 29.3207 65.642 29.3207 64.3281 28.1921C63.8748 27.6998 63.4688 27.1749 63.0614 26.6445C62.6635 26.2949 62.2562 25.9556 61.8397 25.6285C61.6638 25.4866 61.488 25.3446 61.3068 25.1984C60.9673 24.9276 60.6259 24.6591 60.2827 24.393C59.7379 23.9437 59.2396 23.44 58.7403 22.9406C57.7217 22.0578 56.7031 21.1751 55.6537 20.2656C55.5858 23.1175 55.5179 25.9695 55.4479 28.9079C53.954 28.9079 52.4601 28.9079 50.921 28.9079C50.921 23.0682 50.921 17.2284 50.921 11.2117Z" fill="#075FF0"/>
<path d="M177.676 11.2121C179.102 11.2121 180.528 11.2121 181.997 11.2121C181.997 13.8604 181.997 16.5086 181.997 19.2371C183.902 17.8571 183.902 17.8571 185.701 16.3692C185.947 16.1555 186.192 15.9419 186.438 15.7286C186.557 15.6255 186.676 15.5224 186.798 15.4162C187.475 14.8359 188.171 14.2797 188.874 13.732C189.424 13.2837 189.424 13.2837 189.845 12.6983C190.612 11.7687 191.133 11.2842 192.331 11.1228C194.033 11.0332 195.73 11.0995 197.43 11.2121C196.701 11.9596 195.942 12.6514 195.141 13.3212C195.024 13.4195 194.907 13.5177 194.787 13.6189C193.687 14.5417 192.576 15.4506 191.463 16.3564C191.064 16.682 190.665 17.0078 190.267 17.3338C190.081 17.4852 189.895 17.6367 189.704 17.7927C189.287 18.1363 188.876 18.4856 188.466 18.8385C187.964 19.2371 187.964 19.2371 187.553 19.2371C188.226 20.0993 188.94 20.811 189.771 21.5207C191.353 22.875 192.877 24.2986 194.409 25.7095C194.655 25.9352 194.9 26.1606 195.146 26.3859C195.547 26.7546 195.949 27.1241 196.35 27.4937C196.477 27.6107 196.605 27.7278 196.737 27.8484C197.04 28.1289 197.339 28.4152 197.636 28.7026C197.636 28.7705 197.636 28.8384 197.636 28.9084C196.714 28.9626 195.793 28.9952 194.871 29.0241C194.611 29.0396 194.352 29.0551 194.085 29.0711C192.174 29.116 192.174 29.116 191.301 28.5118C190.839 28.0475 190.432 27.5669 190.022 27.0564C189.77 26.8233 189.514 26.5949 189.251 26.3748C188.496 25.7277 187.767 25.0573 187.039 24.3814C185.406 22.8696 183.739 21.4536 181.997 20.0602C181.997 22.9801 181.997 25.9 181.997 28.9084C180.571 28.9084 179.145 28.9084 177.676 28.9084C177.676 23.0686 177.676 17.2288 177.676 11.2121Z" fill="#065EF0"/>
<path d="M88.2428 15.0572C89.2056 15.848 89.8312 16.8259 90.2233 18.0023C90.4016 19.9527 90.6084 22.285 89.5272 23.9953C88.3619 25.3465 86.8382 26.1616 85.0791 26.4389C82.5339 26.5742 80.0639 26.6219 78.0105 24.8996C76.7411 23.7294 76.3484 22.4219 76.1714 20.7239C76.1164 18.9764 76.3664 17.2653 77.4784 15.8674C80.0145 13.2507 85.2737 13.0356 88.2428 15.0572Z" fill="#FAFBFD"/>
<path d="M123.147 11.2119C124.64 11.2119 126.134 11.2119 127.674 11.2119C127.674 16.0331 127.674 20.8543 127.674 25.8216C131.748 25.8216 135.822 25.8216 140.02 25.8216C140.02 26.8402 140.02 27.8588 140.02 28.9082C134.452 28.9082 128.883 28.9082 123.147 28.9082C123.147 23.0684 123.147 17.2286 123.147 11.2119Z" fill="#065DF0"/>
<path d="M143.724 11.2119C145.15 11.2119 146.576 11.2119 148.045 11.2119C148.045 17.0517 148.045 22.8915 148.045 28.9082C146.619 28.9082 145.193 28.9082 143.724 28.9082C143.724 23.0684 143.724 17.2286 143.724 11.2119Z" fill="#055EF0"/>
<path d="M127.674 25.8218C131.748 25.8218 135.822 25.8218 140.02 25.8218C140.02 26.8403 140.02 27.8589 140.02 28.9083C134.587 28.9083 129.155 28.9083 123.558 28.9083C123.558 28.8404 123.558 28.7725 123.558 28.7026C128.651 28.6347 133.744 28.5668 138.991 28.4968C139.127 27.6819 139.263 26.8671 139.403 26.0275C135.532 26.0275 131.661 26.0275 127.674 26.0275C127.674 25.9596 127.674 25.8917 127.674 25.8218Z" fill="#116BEE"/>
<path d="M65.3251 11.2119C67.2264 11.2119 69.1277 11.2119 71.0867 11.2119C70.7471 11.5514 70.4076 11.891 70.0578 12.2408C69.8541 12.2408 69.6504 12.2408 69.4405 12.2408C69.3726 11.9692 69.3047 11.6975 69.2347 11.4177C67.9445 11.4177 66.6544 11.4177 65.3251 11.4177C65.3251 11.3498 65.3251 11.2819 65.3251 11.2119Z" fill="#1169F2"/>
<path d="M118.002 27.4678C118.243 27.6685 118.483 27.8702 118.723 28.0722C118.856 28.1844 118.99 28.2966 119.128 28.4122C119.232 28.508 119.336 28.6037 119.443 28.7024C119.443 28.7703 119.443 28.8382 119.443 28.9082C117.474 28.9082 115.504 28.9082 113.475 28.9082C113.475 28.8403 113.475 28.7724 113.475 28.7024C115.037 28.7024 116.599 28.7024 118.208 28.7024C118.14 28.295 118.072 27.8875 118.002 27.4678Z" fill="#1372EE"/>
<path d="M191.668 11.2119C193.569 11.2119 195.471 11.2119 197.43 11.2119C197.09 11.5514 196.751 11.891 196.401 12.2408C196.278 12.0912 196.278 12.0912 196.152 11.9387C195.686 11.5399 195.43 11.5375 194.823 11.5182C194.639 11.5109 194.456 11.5036 194.266 11.4961C194.075 11.4914 193.884 11.4868 193.687 11.482C193.494 11.475 193.3 11.4679 193.101 11.4607C192.623 11.4437 192.146 11.4295 191.668 11.4177C191.668 11.3498 191.668 11.2819 191.668 11.2119Z" fill="#146AF1"/>
<path d="M186.318 16.1504C186.24 16.6841 186.156 16.9305 185.768 17.3167C184.346 18.3571 184.346 18.3571 183.437 18.4139C185.634 16.1504 185.634 16.1504 186.318 16.1504Z" fill="#1460EE"/>
<path d="M99.0716 11.2119C100.362 11.2119 101.652 11.2119 102.981 11.2119C102.981 11.2798 102.981 11.3477 102.981 11.4177C101.895 11.4177 100.808 11.4177 99.6889 11.4177C99.5531 12.0288 99.4173 12.64 99.2773 13.2696C99.2094 13.2696 99.1415 13.2696 99.0716 13.2696C99.0716 12.5906 99.0716 11.9115 99.0716 11.2119Z" fill="#0E6AF1"/>
<path d="M54.8308 27.0562C54.8987 27.0562 54.9666 27.0562 55.0366 27.0562C55.0366 27.6673 55.0366 28.2784 55.0366 28.9081C53.7464 28.9081 52.4562 28.9081 51.1269 28.9081C51.1269 28.8402 51.1269 28.7723 51.1269 28.7023C52.7566 28.6005 52.7566 28.6005 54.4193 28.4965C54.5551 28.0212 54.6909 27.5459 54.8308 27.0562Z" fill="#0F68ED"/>
<path d="M13.2652 22.1177C12.9684 22.8103 12.5794 23.2516 12.0306 23.7638C11.8269 23.6959 11.6232 23.628 11.4133 23.5581C11.6435 23.3168 11.8753 23.077 12.1077 22.8379C12.3011 22.6373 12.3011 22.6373 12.4984 22.4328C12.8537 22.1177 12.8537 22.1177 13.2652 22.1177Z" fill="#236DF0"/>
<path d="M27.6691 0.100098C27.8729 0.235906 28.0766 0.371715 28.2865 0.511639C28.2093 1.01321 28.2093 1.01321 28.0807 1.54049C27.877 1.64235 27.877 1.64235 27.6691 1.74626C27.6691 1.47465 27.6691 1.20303 27.6691 0.92318C27.5333 0.92318 27.3975 0.92318 27.2576 0.92318C27.2576 0.787372 27.2576 0.651563 27.2576 0.511639C27.3934 0.511639 27.5292 0.511639 27.6691 0.511639C27.6691 0.37583 27.6691 0.240022 27.6691 0.100098Z" fill="#1969F1"/>
<path d="M55.6537 18.0024C55.8574 18.0024 56.0611 18.0024 56.271 18.0024C56.3389 18.2062 56.4068 18.4099 56.4768 18.6198C56.1939 18.9284 56.1939 18.9284 55.8595 19.2371C55.7237 19.2371 55.5879 19.2371 55.4479 19.2371C55.5158 18.8296 55.5837 18.4222 55.6537 18.0024Z" fill="#E7F1FC"/>
<path d="M23.7593 0.100098C24.5741 0.100098 25.389 0.100098 26.2285 0.100098C26.2285 0.168002 26.2285 0.235906 26.2285 0.305868C25.5495 0.441677 24.8704 0.577486 24.1708 0.71741C24.035 0.513697 23.8992 0.309984 23.7593 0.100098Z" fill="#0A5FF5"/>
<path d="M188.376 14.0928C188.444 14.2965 188.512 14.5002 188.582 14.7101C188.089 15.3067 187.694 15.4306 186.936 15.5332C187.416 15.053 187.896 14.5729 188.376 14.0928Z" fill="#206AEF"/>
<path d="M92.2811 13.4756C92.8259 14.006 93.2985 14.4873 93.7215 15.1218C93.5178 15.1218 93.3141 15.1218 93.1042 15.1218C92.2811 14.2516 92.2811 14.2516 92.2811 13.4756Z" fill="#1E70F7"/>
<path d="M115.739 12.2407C117.154 13.0124 117.154 13.0124 117.385 13.4753C116.589 13.3573 116.134 12.9636 115.533 12.4465C115.601 12.3786 115.669 12.3107 115.739 12.2407Z" fill="#0C63F4"/>
<path d="M118.002 27.4678C118.354 27.7313 118.697 28.0064 119.031 28.2909C119.031 28.4267 119.031 28.5625 119.031 28.7024C118.76 28.7024 118.488 28.7024 118.208 28.7024C118.14 28.295 118.072 27.8875 118.002 27.4678Z" fill="#166AF5"/>
</svg>
