<svg width="143" height="32" viewBox="0 0 143 32" fill="none" xmlns="http://www.w3.org/2000/svg">
<path d="M3.04761 6.55243C3.04761 4.72386 3.96189 3.80957 5.79046 3.80957H23.619L17.5238 10.6667L3.04761 25.1429V6.55243Z" fill="#0071E3"/>
<path d="M11.8856 18.7426L17.6761 12.9521L25.9047 25.4474C26.9205 27.276 26.4126 28.1902 24.3809 28.1902H12.4951C11.0729 28.1902 9.85387 27.6823 8.838 26.6664L6.3999 22.3998L11.8856 18.7426Z" fill="#0071E3"/>
<path d="M39.1504 11.7034H42.8683V16.1636L48.2271 11.7034H52.5445L45.6002 17.4915L53.2584 23.9239H48.6043L42.8683 19.1101V23.9239H39.1504V11.7034ZM60.173 13.7673L59.7601 13.7839L59.0055 13.9168L58.3466 14.1827L57.7829 14.5815L57.5368 14.8306L57.3174 15.1101L56.9662 15.7504L56.7321 16.4995L56.6151 17.3572L56.6005 17.8267L56.6151 18.2941L56.7321 19.1482L56.9662 19.8953L57.3174 20.5353L57.5368 20.8151L57.7829 21.0643L58.3466 21.4631L59.0055 21.7289L59.7601 21.8619L60.173 21.8785L60.5883 21.8619L61.3462 21.7289L62.0075 21.4631L62.5723 21.0643L62.8185 20.8151L63.0379 20.5353L63.3892 19.8953L63.6232 19.1482L63.7403 18.2941L63.7549 17.8267L63.7403 17.3572L63.6232 16.4995L63.3892 15.7504L63.0379 15.1101L62.8185 14.8306L62.5723 14.5815L62.0075 14.1827L61.3462 13.9168L60.5883 13.7839L60.173 13.7673ZM60.173 11.4834L61.0186 11.5098L62.5686 11.7207L63.9298 12.1423L65.1027 12.7748L65.6185 13.1701L66.0805 13.6112L66.82 14.6144L67.3128 15.7786L67.5594 17.1038L67.5902 17.8267L67.5594 18.5473L67.3128 19.8691L66.82 21.0313L66.0805 22.0339L65.6185 22.4755L65.1027 22.871L63.9298 23.5034L62.5686 23.9251L61.0186 24.1359L60.173 24.1623L59.3294 24.1359L57.7823 23.9251L56.4217 23.5034L55.2478 22.871L54.7307 22.4755L54.2678 22.0339L53.5272 21.0313L53.0337 19.8691L52.7868 18.5473L52.7559 17.8267L52.7868 17.1038L53.0337 15.7786L53.5272 14.6144L54.2678 13.6112L54.7307 13.1701L55.2478 12.7748L56.4217 12.1423L57.7823 11.7207L59.3294 11.5098L60.173 11.4834ZM75.683 17.1223L76.2257 17.0994L77.0632 16.9161L77.3579 16.7556L77.4768 16.6558L77.6668 16.412L77.8332 15.9351L77.8649 15.543L77.8332 15.155L77.6668 14.6848L77.4768 14.4458L77.3579 14.3486L77.0632 14.1906L76.2257 14.0099L75.683 13.9873H74.1192V17.1223H75.683ZM74.1192 19.2987V23.9239H70.4013V11.7034H76.0785L76.7672 11.7161L78.0013 11.8176L79.0451 12.0205L79.8986 12.325L80.2538 12.5153L80.5653 12.7325L81.0635 13.255L81.3959 13.8953L81.562 14.6535L81.5827 15.0768L81.5719 15.3725L81.4853 15.9235L81.3122 16.4205L81.0527 16.8634L80.8904 17.0647L80.7071 17.2527L80.2748 17.5905L79.7549 17.8773L79.1472 18.113L78.8106 18.2118L79.1821 18.3085L79.8652 18.6424L80.1765 18.8797L80.4802 19.1725L81.092 19.9594L81.4003 20.4538L83.4184 23.9239H79.4596L77.7011 20.8885L77.4343 20.4664L76.895 19.8406L76.6225 19.6365L76.3277 19.4887L75.6014 19.3197L75.1699 19.2987H74.1192ZM85.6316 11.7034H89.3494V21.5433H95.8765V23.9239H85.6316V11.7034ZM98.2349 11.7034H101.953V23.9239H98.2349V11.7034ZM105.594 11.7034H109.745L114.989 20.0844V11.7034H118.515V23.9239H114.362L109.117 15.543V23.9239H105.594V11.7034ZM122.148 11.7034H125.865V16.1636L131.224 11.7034H135.542L128.597 17.4915L136.255 23.9239H131.601L125.865 19.1101V23.9239H122.148V11.7034Z" fill="#0071E3"/>
</svg>
